<?xml version="1.0" encoding="utf-8"?>
<!-- Generator: Adobe Illustrator 16.0.0, SVG Export Plug-In . SVG Version: 6.00 Build 0)  -->
<!DOCTYPE svg PUBLIC "-//W3C//DTD SVG 1.1//EN" "http://www.w3.org/Graphics/SVG/1.1/DTD/svg11.dtd">
<svg version="1.1" id="Ebene_1" xmlns="http://www.w3.org/2000/svg" xmlns:xlink="http://www.w3.org/1999/xlink" x="0px" y="0px"
	 width="1190.549px" height="841.891px" viewBox="0 0 1190.549 841.891" enable-background="new 0 0 1190.549 841.891"
	 xml:space="preserve">
<title>Zeichenfläche 1</title>
<path fill="#3C52A3" d="M584.252,17.942c-156.895,0-284.525,180.962-284.525,403.403c0,222.443,127.63,403.392,284.525,403.392
	c156.89,0,284.544-180.948,284.544-403.392C868.796,198.905,741.142,17.942,584.252,17.942z M584.252,33.444
	c148.265,0,268.884,174.018,268.884,387.901c0,30.001-2.446,59.178-6.934,87.246l-53.177-77.597
	c-1.108-6.853-4.687-11.915-7.914-16.382c-2.916-4.06-5.04-7.021-4.996-10.329c0,0,6.235-8.231,2.524-13.009
	c-9.679-5.854-37.162-28.744-52.713-45.533c-10.957-11.841-28.55-31.047-28.55-31.047s-20.45-42.897-32.289-60.632
	c-8.074-12.078-16.423-24.576-21.08-37.744c-0.932-2.635-1.61-5.407-2.235-8.189c15.54-15.287,24.359-36.017,24.359-58.088
	c0-44.945-36.554-81.514-81.5-81.514c-44.968,0-81.521,36.569-81.521,81.514c0,13.543,3.497,26.625,9.811,38.417
	c-5.987,11.31-11.678,19.761-14.075,22.493c-3.96,4.533-13.146,21.032-19.423,38.256c-13.054,37.302-56.717,106.051-107.63,139.388
	c-1.658,9.839,7.293,9.467-3.286,26.971c-2.236,3.474-4.775,7.438-6.717,12.376l-0.393,1.005l0.233,1.048
	c0.032,0.186,0.137,0.299,0.177,0.489L318.7,482.025c-2.167-19.776-3.306-40.043-3.306-60.68
	C315.395,207.462,436.005,33.444,584.252,33.444z M695.403,383.114c0,0-10.931,13.938-15.926,51.243
	c1.01,18.419-15.331,42.288-18.598,84.061c-3.271,41.781,6.455,76.439,10.602,87.488c7.512,19.955,13.015,34.366,0.076,51.753
	c-12.938,17.419-12.568,23.733-15.833,28.065c-3.234,4.346-9.392,12.525-14.03,14.48c-7.532-46.484-1.981-92.545,3.89-141.223
	c5.284-43.854,6.523-126.73,6.523-126.73s-2.952,6.073-14.399-16.316c-11.424-22.378-9.536-63.616-7.62-101.22
	c1.346-26.549,2.727-53.898-0.827-75.97c6.068,4.451,14.579,20.999,14.628,34.005c0.02,13.039,2.162,62.016,4.547,91.179
	c1.135,13.965,2.278,27.856,3.118,41.917l7.065,0.627c0.788-3.376,1.82-6.713,2.822-10.043c0.84-2.779,1.651-5.529,2.494-8.884
	c1.343-14.826,7.992-30.513,18.268-43.038l6.259-7.622l-9.68,1.82c-11.885,2.259-16.13,11.936-19.396,21.235
	c-3.166-14.688-2.054-32.286-0.886-50.683c1.076-17.061,2.188-34.546-0.304-50.303c13.285,19.625,25.573,48.304,26.347,51.615
	c0.043,0.651,3.657,8.832,4.728,9.976c0,0,21.475,25.458,31.938,34.594c1.751,1.513,13.242,10.442,14.362,15.292
	c0,0-5.386,2.054-6.804,2.518c-4.503,1.513-9.636,3.245-12.24,9.231c-6.177,33.176-9.745,69.517-13.194,104.668
	c-3.992,40.775-8.09,82.83-16.344,120.082c-0.978-1.766-2.009-3.499-3.006-5.196c-4.854-8.208-18.837-57.633-7.179-104.535
	c11.657-46.928,23.076-101.125,23.076-101.125L695.403,383.114z M539.821,754.896c-7.669,0-14.432,1.027-20.586,3.168
	c-0.166-3.934,2.775-9.253,5.423-14.059c1.755-3.169,3.407-6.156,4.462-9.043l0.211-1.146c0.786-43.314-5.524-88.862-11.633-132.918
	c-5.648-40.641-11.445-82.644-11.591-122.368c-0.07-26.384,2.588-73.176,20.192-105.435c0,0,22.189-7.438,39.927-7.881
	c17.723-0.419,42.03,6.338,43.55,8.041c18.25,26.317,22.47,63.573,25.501,102.667c1.564,20.326-5.779,123.248-8.342,141.989
	c-2.168,15.761-4.387,31.909-4.153,49.024c-11.278-21.787-19.697-51.134-24.776-82.812c-4.357-5.279-9.657-9.834-14.779-14.014
	c4.722,49.411,21.305,87.629,37.39,124.597c6.084,13.966,11.848,27.196,16.855,40.792c-5.201,3.798-12.846,5.547-20.868,7.414
	c-1.976,0.468-3.985,0.908-5.943,1.427c-22.916-45.548-59.129-190.302-63.06-265.666c-2.611-1.402-5.262,1.745-8.01,10.711
	c3.7,81.177,11.459,129.127,23.877,171.071c12.416,41.954,18.332,78.933,41.973,95.901c-11.048,4.108-25.783,2.92-41.283,0.773
	C556.183,756.04,547.953,754.896,539.821,754.896z M562.547,768.509c-0.375,1.491-1.186,2.659-2.196,4.085
	c-0.719,1.069-1.539,2.213-2.188,3.563c-3.167-0.741-5.662-2.247-8.458-3.944c-1.377-0.809-2.774-1.679-4.289-2.449
	C548.514,766.407,555.207,766.922,562.547,768.509z M415.542,388.899l-15.669,4.288c0,0-5.938,0.978-8.712,1.703
	c6.198-5.693,16.317-13.292,26.009-13.292c4.619,0,8.582,1.75,12.055,5.384c-0.137,1.398-2.868,13.989-4.033,15.203
	c-1.37,4.592-11.556,16.966-21.63,25.92c-3.358,2.987-6.696,5.969-9.84,9.163c-5.247-0.095-6.292-0.956-8.693-2.89
	c-1.402-1.119-3.199-2.589-6.042-4.174c4.526-18.558,38.792-34.011,38.792-34.011L415.542,388.899z M538.182,177.64
	c4.033-16.827,11.522-68.04,53.74-67.847c31.331,0,36.529,20.249,39.934,68.718c3.031,30.953,5.755,39.668,13.268,54.798h-0.046
	c-2.73,0-6.931-5.27-16.421-10.44c-9.457-5.173-6.355-19.391-6.355-45.819c0-26.425-16.422-45.319-26.864-47.801
	c-10.449-2.496-25.364,5.453-35.311,17.389c-9.939,11.939-12.129,32.919-11.896,66.46l-1.56,2.262
	c-6.6,8.302-12.379,11.216-19.912,13.221c-7.524,1.98-19.88-0.28-19.88-0.28S526.807,210.55,538.182,177.64z M521.964,178.327
	c-3.783-8.889-5.905-18.446-5.905-28.285c0-40.002,32.548-72.567,72.574-72.567c40.003,0,72.544,32.565,72.544,72.567
	c0,17.493-6.268,34.015-17.414,47.038c-1.095-8.481-1.485-17.2-1.789-25.787c-1.008-27.843-2.055-56.625-31.398-70.356
	c-6.604-1.426-12.846-2.132-18.565-2.132c-39.651,0-52.007,33.125-63.968,65.155C526.181,168.945,524.088,173.751,521.964,178.327z
	 M568.655,335.767c-27.924,0.117-42.174,8.652-42.174,8.652s-3.426-1.8-5.029-10.398c-1.586-8.58,5.547-75.761,21.539-99.634
	c0.23-0.257,4.962-8.462,10.374-4.476c5.423,3.96,18.441,10.44,30.142,10.44c12.007,0,21.891-4.337,27.34-11.795
	c0,0,5.97,5.382,9.469,26.279c3.47,20.857-0.724,54.917-6.415,83.517c-0.306,1.477-0.583,2.895-0.854,4.267
	C611.202,342.086,588.844,336.934,568.655,335.767z M609.381,359.756c0,0-35.69-7.597-49.49-7.597
	c-13.801,0-29.84,5.595-29.84,5.595s4.85-14.177,41.779-12.311C600.174,346.565,609.381,359.756,609.381,359.756z M563.643,216.411
	c0.145-0.236,0.282-0.489,0.418-0.725c4.363,4.481,10.422,6.741,18.091,6.741c6.344,0,19.33,0.386,19.33,0.386
	s-1.004,10.326-17.398,9.362c-16.382-0.978-24.214-7.694-24.214-7.694S562.946,217.576,563.643,216.411z M563.339,156.988
	c7.299-1.208,12.194-4.872,16.554-8.159c3.102-2.336,6.063-4.546,9.747-5.861c18.486,5.312,23.003,23.576,21.207,37.811
	c-1.887,15.048-11.536,30.268-26.99,30.268l0,0c-6.179-0.185-11.354-3.096-15.41-8.653
	C560.824,191.933,558.89,174.304,563.339,156.988z M509.275,244.316c6.58-1.587,12.386,0,12.386,0
	c-1.379,10.07-3.264,19.792-5.084,29.233c-1.655,8.508-3.359,17.25-4.712,26.356c0,0-7.857,70.854-11.116,97.244
	c-1.748,14.217-3.569,28.902-4.66,43.41c-4.367,56.433,2.912,113.218,9.949,168.127c4.103,32.003,8.323,65.012,10.075,97.064
	c-11.846-3.979-20.752-12.025-27.109-24.477c8.626-26.254,10.343-60.422,5.493-107.416l-0.607-5.764l-4.886,3.124
	c-9.569,6.086-7.469,17.3-5.435,28.145c1.277,6.797,2.583,13.776,1.629,20.301c-5.571-3.156-18.186-16.133-24.616-22.754
	c-2.241-2.287-4.313-4.433-6.115-6.208c4.505-11.233,14.739-16.985,25.554-23.047c4.367-2.45,8.858-4.965,12.969-7.882l1.697-1.217
	l-0.19-2.066c-5.684-57.753-1.089-111.529,3.335-163.54c0.751-8.785-2.101-22.517-4.336-30.724
	c-2.239-8.208-29.395-25.708-29.395-25.708l6.339,10.458c13.147,21.708,16.765,41.123,12.801,73.11c0,0-3.919,32.938-4.312,33.334
	c0,0,0.418,30.657,0.884,44.505c0.351,10.117,0.699,20.513,1.261,30.681c-10.702-7.788-23.85-12.992-39.216-15.523
	c-2.326-16.11-0.25-35.697,1.749-54.67c3.595-33.894,7.28-68.817-15.055-83.415c0,0-8.087-4.353-8.369-4.332
	c-0.279,0.02,27.719-35.832,35.598-46.49c7.873-10.67,13.468-21.444,13.468-21.444c4.369-11.094,10.379-21.843,16.207-32.264
	c2.66-4.753,5.387-9.601,7.954-14.521C493.407,255.948,499.842,247.347,509.275,244.316z M429.346,518.135l1.537,1.049
	c6.334,4.367,14.075,7.143,21.562,9.818c12.423,4.454,24.149,8.666,28.887,19.35c-2.451,7.393-9.008,10.793-16.533,14.707
	c-6.737,3.5-14.172,7.347-18.276,14.76c-1.915-4.356-4.314-12.031-12.988-29.744c-18.625-37.136-18.161-100.687-2.373-132.438
	c3,19.308,1.44,41.14-0.101,62.361c-0.907,12.794-1.86,26.037-1.716,38.269V518.135z M372.869,442.98l-47.534,82.629
	c-2.028-10.461-3.76-21.107-5.186-31.911l49.651-54.339C370.737,440.68,371.688,441.964,372.869,442.98z M380.805,447.127
	c2.314,0.631,4.783,1.057,7.555,1.057c0.091,0,0.187-0.029,0.276-0.029l-48.447,135.609c-4.673-14.524-8.748-29.494-12.162-44.903
	L380.805,447.127z M345.607,595.229l52.989-148.314c4.523-0.964,8.836-2.298,12.281-3.515
	c-16.786,97.869,30.674,152.436,72.645,200.692l0.203,0.259c-8.087,15.963-8.995,34.04-2.372,48.792
	c4.102,9.115,10.771,16.103,19.254,20.332c-5.678,2.091-11.25,4.398-16.537,7.051l-0.385-2.188
	c-21.499,2.895-43.783,11.358-56.977,17.031c-34.873-36.517-63.444-84.778-82.911-140.784L345.607,595.229z M464.534,734.832
	c-1.97,2.217-8.957,11.795-3.608,30.999c-8.449-6.316-16.641-13.243-24.543-20.771C443.565,741.98,453.642,738.018,464.534,734.832z
	 M471.302,756.781c-0.975-19.51,22.801-30.004,45.037-33.427v11.054c-2.238,0.811-5.245,1.211-8.153,1.587
	c-5.922,0.763-12.615,1.651-16.136,6.566c-2.213,3.081-2.773,7.067-1.769,11.896c1.563,14.733,18.018,14.733,26.855,14.733
	l8.926-0.075c1.798,0,3.571,0.022,5.313,0.12c1.055,0.038,1.661,1.135,3.1,4.584c0.772,1.896,1.708,4.152,3.198,6.23
	c-5.016,0.212-10.259,0.349-15.485,0.349C487.813,780.399,472.124,773.126,471.302,756.781z M508.443,748.719
	c-0.402,1.394-0.633,2.958-0.751,4.663h-4.474v-3.172C504.781,749.396,506.479,748.885,508.443,748.719z M644.393,766.88
	c-4.358,3.237-13.31,4.098-13.31,4.098s-7.531-10.975-9.143-13.935c-0.414-0.775-0.855-1.592-1.371-2.406
	c2.912-1.766,7.043-2.729,12.379-2.841C632.971,753.404,648.737,763.659,644.393,766.88z M582.24,776.557
	c6.764,0,14.902,1.768,23.507,3.609c9.252,1.984,18.787,4.051,27.454,4.051l0,0c12.781,0,21.357-4.59,26.205-14.035l0.37-1.113
	c1.339-8.97-4.841-13.705-9.341-17.161c-4.923-3.751-6.571-5.011-3.473-9.48c5.661-2.124,20.654,9.841,23.103,19.228
	c2.469,9.394-1.214,16.11-6.393,21.849c-6.222,6.825-17.205,10.301-32.658,10.301c-19.717,0-42.583-5.521-59.283-9.554l-3.59-0.842
	C570.474,778.649,574.883,776.557,582.24,776.557z M664.89,737.198c-4.425-3.208-8.595-6.396-11.752-10.247
	c39.293,5.768,62.986,17.582,72.991,23.666c-15.366,13.818-31.727,25.513-48.935,34.686c1.889-3.296,3.493-6.881,4.384-11.112
	C686.45,751.166,675.935,745.272,664.89,737.198z M718.761,460.087c2.054-15.687,4.181-31.819,4.729-47.53
	c4.156,3.313,7.559,7.531,11.092,11.937c1.542,1.912,3.059,3.827,4.676,5.641l-2.852,9.81c-6.551,22.691-13.285,45.977-22.068,66.91
	C714.517,492.4,716.597,476.6,718.761,460.087z M727.103,389.043c3.758-4.573,8.468-6.884,14.013-6.884
	c8.956,0,18.717,5.877,25.534,13.009c-3.059-0.766-6.021-1.698-9.052-2.68c-6.01-1.907-14.939-4.147-14.939-4.147l0.814,9.555
	c19.63,7.902,31.143,12.517,36.413,33.078c-4.037,3.64-8.093,5.503-12.123,5.503C750.789,436.476,734.706,404.7,727.103,389.043z
	 M767.277,449.419c1.351,0,2.518-0.348,3.797-0.491l60.705,123.867c-3.686,12.481-7.83,24.605-12.382,36.381l-58.728-160.443
	C762.84,449.137,765.059,449.419,767.277,449.419z M779.911,446.584c3.382-1.502,6.439-3.455,8.752-6.1l55.374,80.802
	c-2.423,13.117-5.331,25.952-8.667,38.488L779.911,446.584z M500.821,789.997c24.005,1.211,46.009,4.692,67.3,8.191
	c14.554,2.39,42.938,5.212,57.045,6.542c-13.332,2.948-26.998,4.489-40.913,4.489C555.131,809.22,527.102,802.414,500.821,789.997z
	 M735.597,741.744c-11.266-7.176-39.444-21.811-88.135-27.614c-0.945-1.274-0.885,0.233,10.479-11.312
	c13.596-13.823,7.509-21.661,21.006-35.395c20.934-28.671,21.823-58.323,24.146-76.877c1.989-15.736,4.012-32.007,8.751-47.115
	c4.753-15.148,10.972-29.233,17.013-42.845c8.389-18.887,16.338-36.811,19.882-56.232c0.302,0.188,0.639,0.318,0.962,0.495
	l64.718,176.796C794.395,669.349,767.435,710.346,735.597,741.744z"/>
</svg>
