<?xml version="1.0" encoding="utf-8"?>
<!-- Generator: Adobe Illustrator 16.0.0, SVG Export Plug-In . SVG Version: 6.00 Build 0)  -->
<!DOCTYPE svg PUBLIC "-//W3C//DTD SVG 1.1//EN" "http://www.w3.org/Graphics/SVG/1.1/DTD/svg11.dtd">
<svg version="1.1" id="Ebene_1" xmlns="http://www.w3.org/2000/svg" xmlns:xlink="http://www.w3.org/1999/xlink" x="0px" y="0px"
	 width="132.051px" height="285.82px" viewBox="0 0 132.051 285.82" enable-background="new 0 0 132.051 285.82"
	 xml:space="preserve">
<g>
	<path fill="#2F2483" d="M69.087,44.34l0.305-0.025l0.131-0.201c0.615-0.937,0.785-1.718,0.793-1.751l0.016-0.074l-0.441-4.728
		l-0.184-0.133c-0.15-0.107-2.07-1.245-2.38,1.907c-0.2,2.036,0.391,3.906,1.05,4.633C68.599,44.215,68.839,44.34,69.087,44.34z
		 M68.321,39.433c0.076-0.779,0.285-1.282,0.531-1.282c0.029,0,0.061,0.005,0.09,0.012l0.377,4.057
		c-0.037,0.134-0.14,0.461-0.355,0.875C68.623,42.539,68.147,41.201,68.321,39.433z"/>
	<path fill="#2F2483" d="M63.574,44.668l0.336-0.04l0.123-0.208c0.568-0.963,0.703-1.751,0.708-1.785l0.013-0.075l-0.656-4.702
		l-0.19-0.125c-0.062-0.04-0.388-0.24-0.807-0.24c-0.51,0-1.381,0.292-1.484,2.253c-0.105,2.024,0.539,3.82,1.23,4.549
		C63.081,44.542,63.326,44.668,63.574,44.668z M62.615,39.799c0.041-0.792,0.231-1.305,0.485-1.305c0.026,0,0.052,0.003,0.077,0.008
		l0.563,4.036c-0.031,0.136-0.119,0.468-0.315,0.891C63.06,42.891,62.522,41.577,62.615,39.799z"/>
	<path fill="#2F2483" d="M123.401,15.659c-1.284-0.705-17.887,0.861-22.945,1.358l0.002,0.032c-2.42-0.51-10.078,0.292-11.543,0.477
		l-0.002-0.028l0.001,0.028c-0.022,0.003-0.033,0.004-0.054,0.007c-0.418-0.015-0.838-0.017-1.24-0.006l-2.396,0.04
		c-0.804,0.025-1.619,0.028-2.406,0.091c-0.734,0.017-1.765,0.127-2.502,0.631c-0.758,0.473-1.346,1.075-1.881,1.708
		c-0.096,0.11-0.182,0.227-0.273,0.339c0.105-0.648,0.166-1.31,0.166-1.983c0-6.725-5.471-12.195-12.196-12.195
		s-12.196,5.471-12.196,12.195c0,0.792,0.081,1.57,0.227,2.328c-0.277-0.363-0.563-0.722-0.885-1.076
		c-0.55-0.604-1.148-1.204-1.951-1.61c-0.39-0.214-0.838-0.327-1.268-0.398c-0.454-0.053-0.8-0.057-1.206-0.088
		c-0.78-0.055-1.588-0.052-2.38-0.081l-2.364-0.035c-0.322-0.001-0.681-0.006-1.027,0.009c-0.021-0.002-0.031-0.004-0.055-0.007
		l0.001-0.028l-0.001,0.028c-1.465-0.187-9.122-0.988-11.544-0.479l0.003-0.031c-5.058-0.497-21.661-2.062-22.946-1.357
		c-0.352,0.194-0.576,0.498-0.63,0.854c-0.075,0.488,0.162,1.024,0.704,1.594c0.861,0.903,2.334,1.789,3.338,2.229
		c0.935,0.41,3.44,0.674,6.301,0.858c-1.889,0.362-3.487,0.922-3.778,1.79c-0.088,0.262-0.14,0.779,0.502,1.299l0.131,0.108
		c0.53,0.443,1.773,1.48,3.177,1.75c0.096,0.019,0.249,0.027,0.45,0.027c0.357,0,0.87-0.027,1.494-0.076
		c-0.404,0.366-0.636,0.754-0.717,1.106c-0.13,0.568,0.09,1.105,0.575,1.404c0.025,0.016,0.062,0.043,0.113,0.08
		c0.421,0.303,1.541,1.109,3.655,1.75c0.254,0.077,0.602,0.112,1.021,0.112c0.044,0,0.098-0.005,0.144-0.006
		c-0.425,0.248-0.429,0.416-0.431,0.583c-0.003,0.25,0.12,0.487,0.378,0.724c0.931,0.854,4.26,2.092,5.893,2.092
		c0.091,0,0.177-0.004,0.257-0.012c0.022-0.002,0.057-0.01,0.081-0.013v0.455c-0.055,0.19-0.048,0.382,0.043,0.55
		c0.696,1.277,2.469,1.643,4.28,1.848c0.037,0.004,0.077,0.006,0.121,0.006c0.33,0,0.863-0.12,1.518-0.314v0.102
		c-0.066,0.205-0.103,0.551,0.205,0.949c0.613,0.793,2.543,1.506,4.519,1.506c0.324,0,0.65-0.019,0.971-0.061
		c0.227-0.029,0.468-0.088,0.715-0.162v0.426c-0.303,1.095,0.208,2.371,0.921,3.014c0.371,0.333,0.784,0.505,1.192,0.505
		c0.218,0,0.435-0.049,0.643-0.148c0.035-0.017,0.083-0.048,0.123-0.07v0.191c-0.023,0.084-0.029,0.147-0.033,0.196
		c-0.068,0.944,1.026,2.583,2.013,3.364c0.564,0.446,1.026,0.578,1.375,0.578c0.148,0,0.276-0.024,0.383-0.057
		c0.138-0.044,0.412-0.137,1.025-0.868c-0.234,0.878-0.28,1.543-0.13,1.982c0.108,0.32,0.316,0.555,0.601,0.681
		c0.392,0.173,1.203,0.421,2.04,0.421c0.682,0,1.382-0.166,1.885-0.673c0.065-0.064,0.154-0.249,0.255-0.506
		c0.061,0.355,0.152,0.657,0.292,0.871c0.216,0.333,0.491,0.447,0.774,0.501c0.532,0.104,0.562,0.104,1.313,0.12l0.478,0.011
		c0.027,0,0.054,0.001,0.08,0.001c0.937,0,1.537-0.377,1.862-0.67c0.33,1.072,0.656,2.09,0.941,2.964l-0.015,0.001
		c0.04,0.625,0.023,1.204-0.05,1.724c-0.194,1.397-2.118,2.986-3.432,3.596c-1.367,0.634-4.127,1.753-4.154,1.765l-0.346,0.14
		l-0.027,0.372c-0.007,0.105-0.172,2.594,1.198,3.908c0.305,0.292,0.66,0.495,1.054,0.624c-1.341,1.352-1.198,2.245,0.109,4.182
		c0.611,0.904,1.35,1.132,1.862,1.164c0.047,0.003,0.095,0.004,0.143,0.004c0.207,0,0.417-0.038,0.629-0.092
		c-0.194,0.655-0.1,1.19,0.059,1.566c0.319,0.756,1.006,1.277,1.709,1.633c-5.193,1.931-7.713,6.145-8.391,7.483l-8.441-0.119
		c-0.004,0-0.007,0-0.01,0c-0.173,0-0.34,0.067-0.462,0.187c-0.126,0.122-0.197,0.289-0.197,0.463v2.125c0.02,0,0.041,0,0.061,0
		v0.489H32.152h-2.354h-4.27c-0.359,0-0.65,0.291-0.65,0.65v9.686c-1.237,0.284-2.875,1.311-2.875,3.868
		c0,2.527,1.488,3.568,2.631,3.872l0.117,12.331c0.004,0.356,0.294,0.644,0.65,0.644l1.396,0.005c0,0.003,0,0.005,0,0.008
		l3.138,0.011l-0.003,3.714c0,0.325,0.239,0.599,0.561,0.644c0.486,0.072,11.326,1.912,9.984,21.261
		c-0.135,1.052-0.242,2.117-0.313,3.198c-0.011,0.086-0.018,0.167-0.029,0.254l0.015,0.002c-0.063,1.049-0.103,2.108-0.103,3.18
		c0,18.456,9.609,33.785,22.103,36.451v27.458c-8.283,0.956-15.533,4.854-20.747,10.61c-0.004-0.001-0.009-0.001-0.014-0.001
		l-0.001,0.018c-5.325,5.889-8.525,13.708-8.525,22.293c0,18.278,14.871,33.148,33.149,33.148c0.295,0,0.586-0.015,0.879-0.022
		c0.014,0.001,0.028,0.003,0.043,0.003c0.016,0,0.03-0.004,0.045-0.005c17.832-0.516,32.182-15.17,32.182-33.124
		c0-13.923-8.467-25.886-20.77-30.785c-0.076-0.109-0.176-0.2-0.305-0.247c-0.168-0.062-3.982-1.438-8.07-1.96v-27.408
		c12.441-2.729,21.998-18.025,21.998-36.429c0-1.085-0.041-2.157-0.105-3.22l0.02-0.003c-0.015-0.116-0.023-0.225-0.038-0.34
		c-0.067-0.995-0.168-1.976-0.29-2.946c-1.414-19.504,9.484-21.356,9.971-21.428c0.322-0.045,0.561-0.319,0.561-0.644l-0.002-3.714
		l2.668-0.009c0-0.003,0-0.006,0-0.009l1.844-0.006c0.357,0,0.646-0.287,0.65-0.644l0.117-12.331
		c1.143-0.303,2.631-1.344,2.631-3.872c0-2.557-1.637-3.584-2.875-3.868v-9.686c0-0.359-0.291-0.65-0.65-0.65h-2.717h-2.375H89.165
		v-0.447c0.002,0,0.004,0,0.006,0v-2c0-0.359-0.295-0.65-0.658-0.65h-8.316c-0.631-1.283-2.905-5.207-7.74-7.238
		c0.928-0.373,1.869-0.979,2.25-1.883c0.158-0.375,0.254-0.91,0.061-1.564c0.213,0.055,0.424,0.089,0.631,0.089
		c0.035,0,0.07-0.001,0.105-0.002c0.521-0.024,1.274-0.247,1.895-1.166c1.31-1.938,1.453-2.83,0.11-4.182
		c0.395-0.13,0.75-0.332,1.055-0.625c1.371-1.314,1.205-3.802,1.198-3.908l-0.029-0.396l-0.377-0.128
		c-0.025-0.009-2.579-0.876-3.93-1.509c-1.061-0.497-3.613-1.851-4.41-3.686c-0.106-0.241-0.188-0.508-0.256-0.785
		c0.335-1.167,0.683-2.455,1.008-3.767c0.129,0.135,0.318,0.276,0.602,0.407c0.269,0.125,0.605,0.173,0.98,0.173
		c0.533,0,1.146-0.099,1.756-0.217c0.192-0.037,0.468-0.151,0.684-0.484c0.139-0.214,0.23-0.515,0.291-0.87
		c0.102,0.256,0.189,0.438,0.253,0.501c0.505,0.509,1.206,0.675,1.89,0.675c0.836,0,1.646-0.249,2.038-0.421
		c0.284-0.125,0.492-0.361,0.601-0.681c0.148-0.439,0.104-1.104-0.131-1.981c0.613,0.73,0.888,0.823,1.025,0.867
		c0.107,0.034,0.234,0.058,0.383,0.058c0.35,0,0.811-0.132,1.375-0.578c0.988-0.781,2.082-2.421,2.013-3.365
		c-0.003-0.049-0.01-0.111-0.032-0.195v-0.191c0.039,0.023,0.088,0.055,0.123,0.071c0.207,0.099,0.424,0.148,0.642,0.148
		c0.408,0,0.821-0.171,1.192-0.505c0.714-0.643,1.225-1.918,0.922-3.014v-0.425c0.248,0.074,0.489,0.133,0.717,0.162
		c0.32,0.041,0.646,0.06,0.97,0.06c1.976,0,3.905-0.713,4.519-1.506c0.068-0.089,0.109-0.173,0.146-0.256h0.059v-0.158
		c0.061-0.22,0.041-0.403,0-0.533v-0.104c0.653,0.194,1.186,0.313,1.516,0.313c0.044,0,0.085-0.002,0.122-0.006
		c1.812-0.204,3.585-0.569,4.281-1.847c0.092-0.169,0.099-0.363,0.042-0.553v-0.451c0.025,0.003,0.061,0.011,0.082,0.013
		c0.08,0.008,0.166,0.012,0.258,0.012c1.633,0,4.961-1.238,5.893-2.092c0.258-0.237,0.381-0.474,0.377-0.724
		c0-0.068-0.002-0.136-0.031-0.21v-0.379c0.299-0.012,0.566-0.04,0.765-0.1c2.115-0.641,3.235-1.446,3.657-1.75
		c0.051-0.037,0.088-0.064,0.113-0.08c0.484-0.298,0.705-0.836,0.574-1.404c-0.012-0.053-0.041-0.11-0.061-0.165v-0.896
		c0.33,0.02,0.615,0.031,0.837,0.031c0.201,0,0.354-0.009,0.449-0.027c1.403-0.27,2.646-1.306,3.177-1.749l0.133-0.11
		c0.643-0.519,0.59-1.036,0.502-1.298c-0.213-0.634-1.129-1.103-2.344-1.452v-0.441c2.238-0.176,4.093-0.416,4.867-0.755
		c1.005-0.441,2.479-1.328,3.337-2.23c0.542-0.569,0.78-1.105,0.704-1.594C123.978,16.158,123.755,15.854,123.401,15.659z
		 M100.396,18.004c0.014,0.015,0.049,0.053,0.021,0.196c-0.194,1.02-2.568,3.076-3.566,3.546c-0.311,0.146-1.472,0.123-3.034-0.006
		c-0.165-0.023-0.319-0.044-0.456-0.062c-0.502-0.053-0.788-0.083-0.788-0.083l-0.003,0.029c-0.478-0.049-0.977-0.105-1.49-0.167
		c0.457-0.21,0.889-0.467,1.295-0.779c0.34-0.279,0.678-0.567,0.93-1.061c0.031-0.062,0.059-0.131,0.081-0.206
		c0.022-0.059,0.051-0.224,0.05-0.256c0.008-0.006,0.008-0.235-0.031-0.334c-0.043-0.12-0.104-0.226-0.168-0.297
		c-0.197-0.217-0.373-0.308-0.541-0.38C95.817,17.905,99.825,17.694,100.396,18.004z M90.409,29.505l-0.013,0
		c-0.024-0.008-0.05-0.017-0.073-0.025l-0.008,0.022c-0.051-0.008-0.041-0.017-0.068-0.019c-0.083-0.027-0.178-0.063-0.275-0.104
		c-0.193-0.083-0.393-0.174-0.592-0.271c-0.397-0.194-0.795-0.404-1.191-0.618c-1.455-0.791-2.896-1.634-4.324-2.488
		c0.004-0.03,0.016-0.055,0.017-0.085c0.016-0.205,0.005-0.454-0.114-0.75l-0.056-0.112c-0.019-0.032-0.032-0.053-0.042-0.069
		c0.217,0.022,0.443,0.025,0.684-0.01c0.141-0.022,0.276-0.051,0.355-0.08c0.062-0.022,0.061-0.012,0.178-0.06l0.155-0.07
		c0.099-0.04,0.188-0.104,0.282-0.156c0.367,0.128,1.272,0.446,2.489,0.872c0.196,0.067,0.423,0.142,0.634,0.213
		c0.656,0.245,1.312,0.49,1.957,0.753c0.828,0.343,1.661,0.7,2.41,1.123c0.186,0.106,0.365,0.218,0.512,0.332
		c0.014,0.01,0.018,0.018,0.029,0.027l-0.209,0.164c-0.176,0.131-0.354,0.26-0.534,0.382c-0.36,0.245-0.733,0.474-1.112,0.663
		C91.128,29.325,90.718,29.486,90.409,29.505z M85.384,31.91l-0.004,0.001c-0.021-0.007-0.062-0.028-0.102-0.047
		c-0.098-0.058-0.205-0.129-0.312-0.21c-0.215-0.162-0.432-0.344-0.645-0.535c-0.425-0.382-0.84-0.789-1.248-1.204
		c-0.584-0.594-1.145-1.216-1.706-1.835c0.071,0.019,0.13,0.03,0.194,0.045l0.062,0.013c0.088,0.013,0.075,0.007,0.118,0.012
		l0.182,0.007c0.242-0.004,0.484-0.068,0.693-0.173c0.207-0.108,0.391-0.245,0.533-0.401c0.164-0.173,0.291-0.363,0.398-0.562
		c1.354,0.897,2.699,1.829,3.922,2.848c0.173,0.146,0.34,0.296,0.494,0.448c0.15,0.144,0.289,0.301,0.371,0.424
		c-0.002,0.002-0.006,0.012-0.008,0.012c-0.018,0.009-0.008,0.008-0.033,0.035c-0.094,0.11-0.262,0.226-0.434,0.328
		C87.144,31.519,86.233,31.78,85.384,31.91z M82.39,34.861L82.39,34.861C82.39,34.862,82.388,34.861,82.39,34.861z M82.449,34.832
		c-0.156-0.123-0.36-0.366-0.532-0.595c-0.189-0.253-0.373-0.522-0.551-0.796c-0.271-0.424-0.529-0.866-0.785-1.308
		c-0.266-0.487-0.529-0.978-0.807-1.46c0.158-0.074,0.314-0.152,0.459-0.248c0.184-0.129,0.36-0.27,0.516-0.453
		c0.133-0.163,0.245-0.314,0.338-0.555c0.459,0.559,0.926,1.113,1.371,1.68c0.406,0.521,0.82,1.053,1.164,1.576l0.111,0.185
		c0.016,0.026,0.023,0.045,0.029,0.057c0.003,0.067-0.01,0.068-0.006,0.085c-0.018,0.056-0.025,0.11-0.053,0.175
		c-0.09,0.252-0.238,0.524-0.406,0.773c-0.168,0.25-0.363,0.488-0.568,0.676C82.634,34.712,82.534,34.786,82.449,34.832z
		 M92.42,25.9c-0.526-0.145-1.046-0.306-1.548-0.461c-0.781-0.258-1.502-0.495-2.17-0.716c-0.812-0.302-1.629-0.593-2.447-0.874
		c0.123-0.15,0.238-0.307,0.332-0.482c0.1-0.224,0.189-0.457,0.225-0.752c0.029-0.16,0.009-0.215,0.016-0.327v-0.074
		c-0.004-0.125-0.02-0.149-0.037-0.227c-0.012-0.036-0.034-0.055-0.05-0.088l0.385,0.011l-0.001,0.009
		c0.896,0.14,3.994,0.607,6.568,0.813c0.423,0.061,0.933,0.147,1.486,0.294c0.35,0.087,0.83,0.277,0.946,0.412
		c-0.002,0.035-0.007,0.135-0.05,0.274c-0.057,0.2-0.15,0.419-0.257,0.634c-0.218,0.431-0.503,0.864-0.838,1.232
		c-0.32,0.361-0.767,0.681-1.032,0.651C93.493,26.198,92.944,26.04,92.42,25.9z M79.203,20.636c0.485-0.579,1.034-1.123,1.628-1.491
		c0.61-0.393,1.227-0.458,2.068-0.492c0.798-0.063,1.574-0.063,2.358-0.088l2.372-0.039c0.803-0.02,1.541,0.003,2.332,0.08
		c0.763,0.075,1.564,0.17,2.207,0.399c0.1,0.034,0.2,0.088,0.255,0.124c-0.005,0.018-0.013,0.037-0.023,0.059
		c-0.106,0.222-0.37,0.488-0.646,0.703c-0.564,0.438-1.25,0.789-1.935,0.971c-0.171,0.044-0.342,0.077-0.507,0.093
		c-0.151,0.019-0.33,0.007-0.541,0.001l-1.192-0.034l-4.753-0.137c-0.002,0-0.004,0-0.006,0l0,0h-0.009l-0.022,1
		c0.756,0.033,1.545,0.103,2.265,0.256c0.179,0.039,0.353,0.085,0.507,0.141c0.125,0.04,0.228,0.103,0.266,0.132
		c-0.002,0.085,0.009,0.203-0.014,0.233c-0.016,0.099-0.063,0.239-0.123,0.377c-0.074,0.131-0.152,0.26-0.262,0.375
		c-0.102,0.116-0.225,0.222-0.357,0.313c-0.135,0.092-0.275,0.177-0.434,0.239l-0.115,0.053c0.029-0.002-0.072,0.024-0.104,0.035
		c-0.107,0.038-0.168,0.041-0.223,0.049c-0.276,0.044-0.625-0.008-0.951-0.102c-0.324-0.098-0.676-0.256-0.947-0.426l-0.613,0.786
		c0.224,0.213,0.455,0.448,0.661,0.684c0.112,0.116,0.209,0.236,0.297,0.357l0.139,0.181c0.007,0.006,0.046,0.063,0.05,0.064
		l0.045,0.089c-0.012,0.018,0.021,0.107,0.007,0.235c-0.005,0.117-0.034,0.245-0.071,0.37c-0.081,0.25-0.217,0.491-0.383,0.663
		c-0.168,0.172-0.348,0.273-0.527,0.268l-0.069-0.004c0.001,0.002-0.052-0.005-0.006,0.005l-0.062-0.013
		c-0.076-0.018-0.179-0.033-0.217-0.053c-0.097-0.03-0.236-0.085-0.357-0.151c-0.248-0.13-0.488-0.307-0.715-0.507
		c-0.221-0.197-0.444-0.437-0.612-0.654l-0.826,0.562v0c0.338,0.622,0.673,1.282,0.917,1.91c0.059,0.156,0.109,0.312,0.137,0.448
		c0.031,0.156,0.031,0.203-0.002,0.324c-0.002,0.021-0.076,0.174-0.158,0.262c-0.079,0.106-0.188,0.208-0.303,0.3
		c-0.234,0.184-0.523,0.323-0.779,0.378c-0.115,0.03-0.262,0.014-0.281,0.018c-0.098-0.04-0.166-0.077-0.197-0.099
		c-0.045-0.024-0.121-0.083-0.182-0.128c-0.516-0.423-1.023-0.965-1.689-1.405c0.167,0.79,0.547,1.457,1.127,2.042
		c0.082,0.074,0.146,0.139,0.255,0.219c0.118,0.088,0.212,0.142,0.284,0.181c0.232,0.104,0.42,0.128,0.6,0.128
		c0.369,0.694,0.756,1.38,1.158,2.058c0.186,0.344,0.375,0.686,0.553,1.032c0.305,0.594,0.604,1.197,0.842,1.792
		c0.059,0.147,0.113,0.296,0.15,0.43c0.02,0.066,0.031,0.125,0.037,0.166l-0.004,0.01c-0.098,0.239-0.273,0.512-0.453,0.752
		c-0.186,0.241-0.396,0.466-0.607,0.631c-0.088,0.064-0.173,0.112-0.234,0.136c-0.154-0.17-0.334-0.444-0.49-0.704
		c-0.168-0.279-0.33-0.569-0.486-0.862c-0.334-0.623-0.664-1.253-0.999-1.884c-0.282-0.579-0.587-1.144-0.923-1.696v-0.001
		l-0.584,0.292c0.396,1.165,0.883,2.287,1.434,3.39c0.178,0.555,0.334,1.129,0.352,1.649c0.013,0.259-0.043,0.497-0.115,0.582
		c-0.083,0.098-0.34,0.256-0.576,0.359c-0.245,0.102-0.508,0.19-0.746,0.223c-0.119,0.02-0.232,0.02-0.299,0.006
		c-0.067-0.014-0.05-0.018-0.029-0.011c-0.107-0.19-0.221-0.493-0.318-0.765l-0.283-0.859c-0.357-1.161-0.711-2.336-1.162-3.482
		c-0.002-0.004-0.002-0.008-0.004-0.011v0l-0.634,0.171c0.114,0.821,0.3,1.623,0.513,2.419c0.137,0.771,0.299,1.556,0.324,2.285
		c0.008,0.17-0.008,0.362-0.03,0.423l-0.001,0.001l-0.096,0.119c-0.078,0.108-0.086,0.06-0.119,0.11
		c-0.08,0.042-0.185,0.076-0.363,0.094l-0.619,0.062l-0.166,0.025l-0.023,0.003c-0.056-0.058-0.145-0.187-0.213-0.331
		c-0.139-0.281-0.252-0.608-0.355-0.938c0.008-0.305,0.016-0.596,0.023-0.861c0.059-2.091,0.09-3.141-0.29-5.401
		c-0.174-1.036-0.537-2.138-0.945-3.24c0.235-0.145,0.467-0.299,0.694-0.456c2.156-1.365,3.791-3.332,4.733-5.629
		c0.122-0.167,0.239-0.339,0.362-0.504C78.233,21.861,78.692,21.227,79.203,20.636z M80.146,37.948h-0.002l0.004-0.003l0.002,0.002
		v0C80.147,37.948,80.146,37.948,80.146,37.948z M80.144,37.948h0.002C80.146,37.948,80.144,37.948,80.144,37.948L80.144,37.948z
		 M73.712,39.873l-0.021,0.001l-0.038,0.002c0.019-0.005,0.038-0.006,0.058-0.005c0.004,0,0.002,0,0.006,0.001L73.712,39.873z
		 M73.667,39.88l-0.002,0l0,0C73.665,39.88,73.666,39.88,73.667,39.88z M69.533,17.477c-0.06-0.266-0.13-0.516-0.233-0.74
		c-0.395-0.862-0.91-1.962-2.16-2.457c-0.408-0.199-0.846-0.312-1.302-0.312c-0.47,0-0.919,0.12-1.338,0.33
		c-1.384,0.618-2.26,2.173-2.473,3.362c-0.054,0.303-0.091,0.655-0.119,1.024c-0.03,0.278-0.051,0.56-0.051,0.85
		c0,0.022,0.003,0.042,0.003,0.064c-0.021,0.652-0.021,1.29-0.021,1.771v0.385c-0.007,1.516-0.305,2.71-0.554,3.458
		c-2.213-1.565-3.559-4.108-3.559-6.858c0-4.636,3.771-8.407,8.406-8.407s8.407,3.771,8.407,8.407c0,2.904-1.492,5.551-3.918,7.087
		c-0.318-0.947-0.574-1.875-0.658-2.731c-0.094-0.951-0.141-1.751-0.176-2.47c0.021-0.234,0.032-0.471,0.031-0.71
		C69.817,18.803,69.714,18.112,69.533,17.477z M66.764,24.687l-0.972,0.575l-1.14-0.7c-0.758-1.141-1.582-2.873-1.595-5.031
		c0-2.364,1.273-4.362,2.781-4.362s2.78,1.997,2.78,4.362C68.626,21.609,67.614,23.477,66.764,24.687z M66.131,7.157
		c6.173,0,11.196,5.022,11.196,11.195c0,1.483-0.304,2.904-0.836,4.218c-0.779,1.077-1.533,2.163-2.281,3.25
		c-0.237,0.35-0.419,0.611-0.681,0.867c-0.255,0.257-0.545,0.498-0.848,0.727c-0.003,0.002-0.005,0.004-0.009,0.007
		c-0.138,0.104-0.287,0.199-0.43,0.3c-0.205,0.133-0.426,0.25-0.642,0.371c-0.046-0.117-0.09-0.236-0.136-0.353
		c-0.172-0.443-0.344-0.89-0.509-1.336c2.831-1.698,4.581-4.723,4.581-8.051c0-5.187-4.22-9.407-9.407-9.407
		c-5.187,0-9.406,4.22-9.406,9.407c0,3.161,1.594,6.07,4.192,7.808c-0.074,0.21-0.282,0.802-0.612,1.724
		c-0.929-0.567-1.754-1.25-2.465-2.034c-0.115-0.164-0.23-0.333-0.35-0.508c-0.426-0.628-0.859-1.254-1.3-1.877
		c-0.797-1.553-1.255-3.289-1.255-5.112C54.935,12.179,59.958,7.157,66.131,7.157z M46.445,18.427
		c0.776,0.028,1.54,0.022,2.326,0.078c0.376,0.027,0.817,0.043,1.141,0.081c0.341,0.06,0.669,0.137,0.967,0.304
		c0.607,0.301,1.15,0.826,1.649,1.378c0.502,0.549,0.981,1.193,1.43,1.815c0.461,0.621,0.899,1.269,1.348,1.904
		c0.504,0.97,1.139,1.869,1.889,2.673c0.301,0.41,0.636,0.818,1.035,1.162c0.496,0.452,1.098,0.823,1.7,1.104
		c-0.11,0.306-0.227,0.628-0.355,0.979c-0.773,2.117-0.877,5.867-0.843,8.462c-0.074,0.267-0.143,0.538-0.238,0.783
		c-0.069,0.178-0.148,0.349-0.231,0.479c-0.03,0.043-0.06,0.081-0.081,0.103l-0.071-0.011l-0.171-0.026l-0.333-0.033
		c-0.207-0.017-0.402-0.034-0.501-0.069c-0.044-0.025-0.101-0.039-0.124-0.069c-0.018-0.018-0.029-0.01-0.059-0.042l-0.099-0.123
		l-0.034-0.043c-0.002-0.008-0.006-0.021-0.008-0.032c-0.011-0.058-0.021-0.141-0.021-0.231c-0.004-0.746,0.179-1.591,0.318-2.401
		c0.002-0.014,0.006-0.027,0.008-0.042c0.212-0.796,0.398-1.598,0.512-2.419l-0.634-0.171v0c-0.001,0.003-0.002,0.007-0.003,0.011
		c-0.452,1.146-0.805,2.322-1.162,3.482l-0.284,0.859c-0.098,0.272-0.211,0.575-0.318,0.765c0.02-0.005,0.039-0.003-0.029,0.012
		c-0.065,0.014-0.18,0.014-0.298-0.006c-0.238-0.033-0.501-0.121-0.746-0.223c-0.237-0.103-0.494-0.261-0.577-0.359
		c-0.072-0.085-0.128-0.322-0.116-0.582c0.018-0.521,0.175-1.095,0.353-1.649c0.551-1.103,1.038-2.225,1.434-3.389l-0.583-0.292
		l0,0.001c-0.336,0.553-0.642,1.118-0.924,1.697c-0.334,0.63-0.664,1.261-0.998,1.883c-0.158,0.293-0.319,0.583-0.487,0.861
		c-0.156,0.26-0.336,0.534-0.49,0.705c-0.062-0.024-0.147-0.072-0.235-0.136c-0.211-0.165-0.421-0.391-0.606-0.632
		c-0.18-0.24-0.356-0.513-0.454-0.751l-0.004-0.009c0.006-0.042,0.018-0.1,0.038-0.167c0.038-0.134,0.091-0.282,0.15-0.43
		c0.239-0.595,0.538-1.198,0.842-1.792c0.177-0.344,0.366-0.685,0.55-1.027c0.403-0.68,0.792-1.366,1.161-2.062
		c0.18,0,0.366-0.025,0.598-0.128c0.072-0.039,0.166-0.092,0.284-0.181c0.108-0.08,0.173-0.144,0.255-0.219
		c0.581-0.584,0.961-1.252,1.127-2.042c-0.666,0.439-1.173,0.982-1.689,1.404c-0.06,0.045-0.136,0.104-0.181,0.128
		c-0.032,0.022-0.1,0.059-0.197,0.099c-0.022-0.002-0.167,0.013-0.282-0.017c-0.256-0.055-0.545-0.195-0.778-0.379
		c-0.115-0.093-0.224-0.194-0.303-0.3c-0.082-0.088-0.157-0.24-0.159-0.262c-0.033-0.122-0.033-0.167,0-0.324
		c0.027-0.136,0.078-0.292,0.136-0.448c0.244-0.627,0.58-1.288,0.917-1.91l0,0l-0.826-0.562c-0.168,0.218-0.392,0.457-0.613,0.654
		c-0.226,0.2-0.467,0.376-0.715,0.507c-0.12,0.066-0.261,0.122-0.356,0.151c-0.039,0.02-0.14,0.036-0.217,0.053l-0.061,0.013
		c0.045-0.01-0.008-0.003-0.007-0.005l-0.069,0.004c-0.179,0.005-0.36-0.095-0.528-0.267c-0.166-0.172-0.301-0.413-0.382-0.663
		c-0.038-0.125-0.066-0.253-0.072-0.37c-0.015-0.128,0.019-0.219,0.007-0.235l0.045-0.089c0.003-0.001,0.043-0.058,0.05-0.065
		l0.139-0.181c0.088-0.122,0.185-0.241,0.296-0.358c0.207-0.236,0.437-0.47,0.661-0.684l-0.614-0.785
		c-0.272,0.17-0.623,0.328-0.948,0.426c-0.326,0.094-0.674,0.146-0.951,0.101c-0.054-0.008-0.115-0.011-0.223-0.049l-0.071-0.021
		c0,0-0.006-0.002-0.011-0.003l-0.021-0.01l-0.114-0.053c-0.159-0.062-0.299-0.147-0.434-0.239
		c-0.133-0.091-0.255-0.198-0.358-0.313c-0.108-0.114-0.187-0.244-0.261-0.375c-0.06-0.138-0.107-0.278-0.123-0.378
		c-0.022-0.03-0.012-0.146-0.014-0.231c0.039-0.03,0.142-0.092,0.266-0.132c0.154-0.056,0.329-0.102,0.507-0.142
		c0.72-0.152,1.508-0.222,2.265-0.255l-0.023-1h-0.008l0,0c-0.002,0-0.004,0-0.005,0l-4.694,0.135l-1.177,0.034
		c-0.425,0.02-0.692,0.017-1.046-0.072c-0.675-0.167-1.356-0.502-1.927-0.925c-0.281-0.21-0.546-0.459-0.691-0.694
		c-0.034-0.039-0.05-0.093-0.062-0.133c0.034-0.025,0.083-0.059,0.143-0.079c0.588-0.247,1.396-0.347,2.142-0.428
		c0.381-0.038,0.766-0.066,1.15-0.086c0.384-0.026,0.739-0.015,1.147-0.013L46.445,18.427z M58.229,39.74L58.229,39.74
		c0.026-0.003,0.052-0.002,0.058,0.002L58.229,39.74z M58.276,39.748l-0.004,0l-0.002,0C58.272,39.747,58.274,39.747,58.276,39.748z
		 M51.796,37.816c0,0-0.001,0-0.002,0L51.796,37.816L51.796,37.816z M51.79,37.814L51.79,37.814l0.002-0.002l0.003,0.003
		c-0.001,0,0,0-0.002,0C51.792,37.815,51.791,37.815,51.79,37.814z M46.661,31.732c-0.039,0.019-0.079,0.04-0.101,0.047
		l-0.003-0.001c-0.85-0.13-1.76-0.391-2.477-0.795c-0.171-0.102-0.339-0.217-0.433-0.328c-0.025-0.026-0.016-0.025-0.034-0.034
		c-0.001-0.001-0.005-0.009-0.007-0.012c0.081-0.123,0.221-0.281,0.371-0.425c0.155-0.151,0.322-0.302,0.495-0.448
		c1.222-1.019,2.569-1.95,3.921-2.847c0.107,0.199,0.234,0.389,0.399,0.562c0.144,0.157,0.328,0.293,0.534,0.401
		c0.21,0.104,0.452,0.168,0.695,0.172l0.181-0.008c0.042-0.004,0.032,0.001,0.118-0.011l0.062-0.013
		c0.063-0.015,0.123-0.026,0.195-0.046c-0.563,0.62-1.124,1.243-1.708,1.837c-0.409,0.415-0.824,0.822-1.249,1.204
		c-0.212,0.191-0.429,0.374-0.645,0.535C46.866,31.603,46.759,31.674,46.661,31.732z M41.693,29.351
		c-0.026,0.002-0.018,0.011-0.069,0.019l-0.007-0.022c-0.024,0.008-0.049,0.017-0.074,0.025l-0.012,0
		c-0.309-0.019-0.719-0.18-1.091-0.365c-0.379-0.189-0.75-0.418-1.112-0.663c-0.181-0.123-0.358-0.251-0.534-0.382l-0.21-0.164
		c0.012-0.01,0.017-0.018,0.03-0.027c0.147-0.114,0.326-0.227,0.511-0.332c0.75-0.423,1.583-0.78,2.41-1.123
		c0.643-0.262,1.295-0.506,1.948-0.75c0.215-0.072,0.445-0.149,0.644-0.217c1.217-0.426,2.123-0.744,2.49-0.872
		c0.093,0.052,0.182,0.116,0.28,0.155l0.156,0.07l0.039,0.017l0.067,0.021l0.071,0.021c0.079,0.029,0.214,0.058,0.355,0.08
		c0.24,0.036,0.467,0.033,0.686,0.01c-0.011,0.017-0.024,0.038-0.043,0.071l-0.056,0.112c-0.12,0.299-0.129,0.545-0.114,0.751
		c0.002,0.03,0.013,0.055,0.016,0.084c-1.428,0.854-2.868,1.697-4.324,2.487c-0.396,0.213-0.794,0.424-1.192,0.618
		c-0.199,0.097-0.397,0.189-0.592,0.271C41.871,29.288,41.775,29.324,41.693,29.351z M36.761,22.895
		c0.553-0.147,1.062-0.234,1.484-0.294c2.577-0.206,5.676-0.674,6.572-0.814l-0.001-0.009l0.383-0.011
		c-0.015,0.032-0.037,0.051-0.049,0.086c-0.018,0.079-0.033,0.1-0.038,0.229l0,0.074c0.007,0.112-0.013,0.168,0.017,0.327
		c0.035,0.295,0.124,0.528,0.224,0.751c0.094,0.175,0.21,0.333,0.333,0.484c-0.819,0.281-1.636,0.572-2.449,0.874
		c-0.668,0.22-1.387,0.458-2.168,0.715c-0.501,0.156-1.021,0.317-1.547,0.461c-0.525,0.14-1.075,0.298-1.528,0.33
		c-0.267,0.031-0.712-0.288-1.033-0.65c-0.335-0.368-0.62-0.801-0.838-1.231c-0.106-0.215-0.2-0.434-0.256-0.634
		c-0.044-0.139-0.048-0.239-0.05-0.275C35.93,23.172,36.412,22.982,36.761,22.895z M49.209,34.492
		c-0.205-0.187-0.399-0.425-0.567-0.675c-0.167-0.249-0.316-0.521-0.406-0.773c-0.027-0.065-0.036-0.119-0.052-0.175
		c0.003-0.018-0.01-0.018-0.006-0.086c0.005-0.012,0.013-0.031,0.029-0.057l0.111-0.184c0.344-0.523,0.758-1.056,1.165-1.577
		c0.445-0.566,0.912-1.12,1.371-1.679c0.092,0.241,0.205,0.392,0.336,0.554c0.156,0.183,0.333,0.324,0.516,0.453
		c0.146,0.096,0.302,0.174,0.46,0.248c-0.276,0.483-0.541,0.975-0.808,1.462c-0.256,0.441-0.512,0.882-0.784,1.306
		c-0.178,0.274-0.36,0.543-0.55,0.796c-0.172,0.229-0.376,0.472-0.533,0.595C49.406,34.654,49.306,34.581,49.209,34.492z
		 M49.55,34.729c0.002,0,0,0,0.001,0.001C49.552,34.73,49.551,34.73,49.55,34.729z M31.511,17.902
		c0.632-0.323,4.618-0.122,7.726,0.111c-0.206,0.114-0.487,0.191-0.695,0.66c-0.114,0.523,0.068,0.733,0.182,0.975
		c0.273,0.433,0.606,0.715,0.948,0.978c0.375,0.275,0.77,0.507,1.187,0.7c-0.513,0.062-1.011,0.118-1.488,0.167l-0.003-0.031
		c0,0-0.287,0.03-0.789,0.083c-0.14,0.019-0.301,0.04-0.473,0.065c-1.553,0.127-2.707,0.149-3.017,0.004
		c-0.998-0.471-3.372-2.527-3.567-3.547C31.5,17.952,31.518,17.905,31.511,17.902z M9.335,17.287
		c-0.353-0.371-0.458-0.637-0.439-0.752c0.002-0.017,0.01-0.067,0.105-0.122c1.083-0.408,13.426,0.602,21.53,1.384
		c-0.02,0.135-0.026,0.283,0.008,0.458c0.117,0.609,0.629,1.329,1.267,2.007c-4.392,0.083-7.166,0.116-7.495,0.093
		c-0.116-0.009-0.455-0.022-0.951-0.042c-2.354-0.091-9.519-0.37-11.008-1.024C11.407,18.875,10.067,18.054,9.335,17.287z
		 M18.472,25.028c-1.15-0.221-2.254-1.142-2.726-1.535l-0.143-0.118c-0.159-0.128-0.181-0.202-0.183-0.202h0
		c0.09-0.39,2.481-1.528,9.395-1.75l-0.002-0.06c0.026,0,0.041,0,0.068,0c1.563,0,5.421-0.07,7.961-0.12
		c0.704,0.599,1.401,1.078,1.821,1.276c0.102,0.048,0.253,0.083,0.425,0.11c-0.021,0.022-0.042,0.038-0.064,0.063
		c-0.068,0.089-0.139,0.198-0.175,0.344l-0.014,0.053l-0.01,0.067l-0.005,0.046c0,0.001,0,0.007,0,0.009
		c-3.294,0.45-7.467,0.989-10.79,1.367v-0.001c-0.01,0.001-0.019,0.003-0.029,0.004C21.129,24.909,18.905,25.112,18.472,25.028z
		 M24.143,29.344c-1.955-0.593-2.976-1.328-3.361-1.604c-0.077-0.056-0.135-0.097-0.173-0.12c-0.082-0.05-0.169-0.133-0.124-0.329
		c0.127-0.555,1.203-1.471,3.645-1.718c4.024-0.454,8.943-1.114,10.91-1.382c0.062,0.158,0.115,0.322,0.19,0.474
		c0.261,0.512,0.581,1.002,0.994,1.458c0.259,0.258,0.556,0.548,0.944,0.747C32.428,28.204,25.667,29.809,24.143,29.344z
		 M31.015,32.799c-1.234,0.119-4.315-1.044-5.22-1.689c1.057-0.447,4.567-1.442,11.711-3.05c0.009,0.025,0.005,0.054,0.018,0.078
		c0.251,0.374,0.29,0.292,0.385,0.403l0.281,0.219c0.189,0.141,0.379,0.279,0.574,0.412c0.391,0.265,0.794,0.514,1.229,0.731
		c0.004,0.002,0.008,0.003,0.012,0.005c-0.566,0.2-1.135,0.406-1.697,0.615C34.938,31.696,31.797,32.721,31.015,32.799z
		 M35.632,35.639c-1.39-0.157-2.867-0.423-3.427-1.194c0.508-0.556,3.099-1.735,6.667-3.06c1.062-0.371,2.029-0.715,2.738-0.969
		l-0.003-0.007c0.042-0.015,0.084-0.029,0.127-0.044l0.003,0c0.038-0.002,0.169-0.035,0.25-0.058
		c0.134-0.043,0.25-0.088,0.364-0.136c0.178-0.075,0.346-0.155,0.514-0.235c-0.041,0.054-0.083,0.099-0.123,0.162
		c-0.057,0.16-0.258,0.297-0.111,0.797c0.031,0.061,0.034,0.089,0.088,0.178c0.053,0.084,0.123,0.187,0.178,0.245
		c0.217,0.244,0.447,0.389,0.676,0.527c0.339,0.188,0.682,0.333,1.026,0.458c-0.369,0.164-0.71,0.317-1.043,0.468
		C39.342,34.594,36.272,35.727,35.632,35.639z M42.725,37.83c-2.419,0.311-4.52-0.745-4.639-1.058
		c0.237-0.327,2.196-1.416,5.95-3.117c0.761-0.33,1.483-0.648,2.125-0.935c0.087,0.016,0.172,0.035,0.26,0.049l-0.144-0.042
		c0.295,0.112,0.479,0.038,0.583,0.008c0.124-0.04,0.201-0.085,0.289-0.13c0.022-0.013,0.039-0.027,0.061-0.04
		c-0.01,0.04-0.023,0.065-0.029,0.117c-0.01,0.049-0.004,0.241,0.023,0.385c0.026,0.106,0.052,0.216,0.088,0.307
		c0.136,0.378,0.316,0.695,0.52,1.002c0.087,0.129,0.182,0.252,0.28,0.375c-0.764,0.562-1.432,1.078-2.004,1.547
		C44.706,37.184,43.535,37.725,42.725,37.83z M45.894,41.554c-0.278,0.133-0.553-0.034-0.735-0.198
		c-0.495-0.445-0.857-1.392-0.609-2.092c0.113-0.319,0.771-1.042,2.166-2.185c0.823-0.533,1.584-1.09,2.196-1.566
		c0.046,0.029,0.087,0.061,0.14,0.088c0.045,0.029,0.115,0.052,0.174,0.075l0.092,0.033l0.006,0.002l0.104,0.018l0.008,0l0.016,0
		l0.031,0.002c0.006,0.003,0.03,0.002,0.062-0.001c-0.011,0.035-0.024,0.064-0.035,0.1c-0.027,0.094-0.052,0.2-0.068,0.326
		c-0.001,0.089-0.021,0.115,0.002,0.258c0.01,0.058,0.023,0.126,0.042,0.17l0.023,0.059c0.157,0.389,0.355,0.688,0.574,0.993
		c0.041,0.054,0.088,0.105,0.131,0.158C48.034,39.897,46.424,41.301,45.894,41.554z M49.885,45.703
		c-0.136,0.043-0.427-0.026-0.837-0.351c-0.916-0.724-1.667-2.075-1.637-2.496c0.014-0.074,0.242-0.815,3.556-4.321
		c0.145,0.102,0.301,0.201,0.52,0.269c0.173,0.03,0.22,0.082,0.565,0.01l0.059-0.023c0.05-0.022,0.112-0.057,0.164-0.093
		c0.131-0.093,0.116-0.101,0.179-0.156c0.031-0.035,0.048-0.065,0.077-0.1c0.03,0.219,0.097,0.449,0.255,0.683
		c0.312,0.378,0.619,0.517,0.93,0.681c0.038,0.018,0.078,0.03,0.116,0.046C51.374,44.189,50.193,45.58,49.885,45.703z
		 M54.898,47.493c-0.662,0.668-2.21,0.31-2.814,0.044c-0.01-0.004-0.033-0.014-0.057-0.087c-0.22-0.647,0.401-2.893,2.733-7.21
		c0.021-0.037,0.041-0.071,0.062-0.108c0.16,0.019,0.329,0.027,0.529-0.008c0.194-0.03,0.449-0.146,0.614-0.358l0.018,0.035
		c0.017,0.026-0.007-0.002,0.043,0.067l0.012,0.016l0.048,0.062l0.096,0.125c0.039,0.047,0.115,0.116,0.174,0.169
		c0.077,0.075,0.163,0.126,0.25,0.171c-0.153,0.7-0.373,1.78-0.549,2.945C55.844,44.608,54.998,47.28,54.898,47.493z M60.022,47.76
		c-0.172,0.167-0.573,0.447-1.282,0.438l-0.48-0.01c-0.695-0.015-0.695-0.015-1.229-0.118c-0.518-0.318-0.251-3.774,0.547-7.428
		l0.229,0.029l0.355,0.059l0.079,0.004c0.061,0,0.172-0.016,0.252-0.042c0.137-0.05,0.226-0.108,0.295-0.168
		c0.002-0.001,0.002-0.003,0.004-0.005c0.003,0.057,0.006,0.123,0.008,0.173c0.059,1.17,0.479,3.008,1.014,4.958L60.022,47.76z
		 M60.744,44.858c-0.027-0.246-0.088-0.692-0.243-1.34l-0.092,0.022c-0.277-1.158-0.472-2.185-0.508-2.902
		c-0.179-3.581-0.087-8.182,0.707-10.356c0.88-2.417,1.357-3.786,1.353-3.789c0.042-0.082,0.566-1.133,0.829-2.84
		c0.924,2.025,2.213,3.233,2.295,3.309l0.711,0.66l0.686-0.688c0.091-0.091,1.506-1.544,2.464-3.656
		c0.237,1.566,0.866,3.235,1.495,4.86c0.578,1.488,1.174,3.027,1.4,4.378c0.361,2.155,0.334,3.105,0.275,5.188
		c-0.022,0.769-0.049,1.684-0.061,2.859c-0.014,1.418-0.318,3.346-0.75,5.384l-0.057,0.006l0.019,0.171
		c-0.864,4.026-2.209,8.441-2.835,10.235c-0.213,0.614-0.385,1.186-0.539,1.702c-0.553,1.853-0.793,2.452-1.516,2.451v0.55
		l-0.043-0.551c-0.957-0.03-1.254-0.973-1.974-3.696l-0.3-1.123c-0.231-0.857-0.48-1.657-0.746-2.496l-0.314-0.964
		c-0.064-0.197-0.137-0.417-0.213-0.65c-0.002-0.056,0-0.107-0.003-0.164l-0.049,0.003C62.169,49.691,61.357,47.151,60.744,44.858z
		 M80.737,214.583h-5.223c0.116-0.004,0.229-0.033,0.328-0.095l1.965-1.241C78.812,213.644,79.788,214.092,80.737,214.583z
		 M81.524,219.825H60.088c0.443-0.425,0.851-0.869,1.214-1.266l0.269-0.293c0.096-0.104,0.141-0.232,0.156-0.363h24.135
		c0.766,0.607,1.5,1.248,2.203,1.922h-5.193C82.452,219.666,82.002,219.637,81.524,219.825z M94.93,229.446
		c-0.565,0.073-1.048,0.258-1.407,0.578c-0.08,0.071-0.141,0.161-0.178,0.262c-0.376,1.033,0.27,1.788,0.74,2.34
		c0.215,0.252,0.418,0.49,0.539,0.788c0.354,0.628,0.15,1.431-0.088,2.36c-0.117,0.463-0.242,0.949-0.299,1.446
		c-0.012-0.013-0.022-0.026-0.034-0.038c-0.293-0.312-0.702-0.445-1.12-0.356c-0.543,0.109-1.053,0.575-1.271,1.159
		c-0.032,0.088-0.046,0.183-0.038,0.276c0.009,0.124,0.039,0.239,0.092,0.354c0.043,0.091,0.104,0.17,0.182,0.232
		c0.074,0.088,0.171,0.154,0.281,0.193c0.084,0.029,0.157,0.079,0.218,0.148c0.065,0.312,0.163,0.66,0.268,1.025
		c0.417,1.466,0.662,2.549-0.001,2.986c-0.102,0.013-0.205,0.019-0.311,0.025c-0.554,0.037-1.312,0.087-1.869,0.848
		c-0.371,0.517-0.609,1.363-0.309,2.061c-0.297-0.248-0.669-0.3-0.887-0.328c-0.068-0.009-0.162-0.021-0.217-0.031
		c-0.225-0.895-0.744-1.504-1.445-1.688c-0.752-0.197-1.596,0.133-2.275,0.882c-1.166,0.642-1.26,1.911-1.314,2.867
		c-0.263-0.547-0.455-1.188-0.645-1.867c-0.197-0.713-0.402-1.449-0.72-2.105c-0.077-0.158-0.215-0.279-0.382-0.334
		c-0.572-0.188-1.129-0.418-1.689-0.647c-1.047-0.43-2.129-0.873-3.332-1.077c-0.232-0.146-0.446-0.376-0.641-0.701l-0.066-0.096
		c-0.088-0.129-0.209-0.308-0.404-0.452c-0.111-0.084-0.248-0.13-0.389-0.13c-0.079,0-0.29,0-0.498,0.149
		c-0.08,0.058-0.145,0.131-0.191,0.217c-0.258,0.474-0.191,0.97-0.143,1.331l0.02,0.152c0.209,1.53,1.418,1.403,1.87,1.354
		c0.116-0.012,0.304-0.034,0.382-0.018c0.174,0.25,0.389,0.413,0.568,0.547c-0.725,0.751-2.218,1.665-3.354,2.264
		c-0.448-0.756-0.817-1.578-1.197-2.434c-0.411-0.927-0.845-1.88-1.416-2.8c0.693-0.629,0.897-2.157,0.671-3.063
		c-0.045-0.178-0.163-0.329-0.325-0.415c-0.163-0.086-0.354-0.099-0.526-0.038c-0.266,0.096-0.602,0.1-0.705,0.007
		c-0.066-0.06-0.143-0.312-0.01-0.87c0.123,0.014,0.248,0.031,0.373,0.052c0.568,0.093,1.22,0.149,1.75-0.032
		c0.107-0.038,0.205-0.103,0.279-0.189c0.082-0.094,0.139-0.198,0.168-0.312c0.299,0.058,0.568,0.133,0.777,0.277
		c0.194,0.134,0.445,0.153,0.656,0.048c0.212-0.104,0.35-0.314,0.362-0.551c0.024-0.498-0.008-1.024-0.039-1.532
		c-0.019-0.309-0.038-0.605-0.043-0.887c0.278,0.035,0.549,0.025,0.786-0.063c0.07-0.026,0.137-0.065,0.193-0.115
		c0.102-0.086,0.208-0.189,0.284-0.287c0.063-0.082,0.107-0.179,0.126-0.281c0.199-1.075-0.296-1.944-0.733-2.711
		c-0.155-0.272-0.306-0.534-0.415-0.789c0.062-0.043,0.14-0.09,0.195-0.124c0.314-0.192,1.15-0.703,0.729-1.682
		c-0.036-0.083-0.096-0.149-0.159-0.21l0.655-2.482l0.384-0.948c1.137,0.277,2.12-0.765,2.873-1.563
		c0.456-0.482,0.927-0.982,1.346-1.169c0.043-0.02,0.084-0.043,0.122-0.071c0.579-0.428,1.027-0.109,2.172,1.129
		c0.44,0.478,0.896,0.971,1.4,1.309c0.075,0.05,0.16,0.084,0.248,0.1c1.725,0.309,3.481,0.695,5.18,1.069
		c0.607,0.134,1.213,0.266,1.82,0.396C93.45,226.539,94.245,227.961,94.93,229.446z M96.291,232.925h-0.465
		c-0.011-0.021-0.017-0.043-0.028-0.063c-0.162-0.42-0.461-0.771-0.725-1.079c-0.383-0.449-0.543-0.678-0.538-0.895
		c0.263-0.152,0.612-0.188,0.94-0.184C95.774,231.432,96.046,232.172,96.291,232.925z M46.236,264.366
		c-0.774-1.449-0.835-3.47-0.896-5.564c-0.051-1.762-0.104-3.584-0.63-5.102c-0.368-0.936-1.031-1.568-1.671-2.18
		c-0.384-0.367-0.747-0.713-0.982-1.038c-0.161-0.299-0.291-0.61-0.386-0.926c-0.011-0.036-0.025-0.071-0.042-0.105
		c-0.314-0.62-0.103-1.08,0.298-1.84c0.347-0.658,0.77-1.461,0.51-2.429c0.279-0.436,0.674-0.817,1.108-1.067
		c0.331,0.04,0.662,0.096,0.991,0.152c0.374,0.335,0.754,0.671,1.147,0.977c0.115,0.09,0.256,0.138,0.399,0.138
		c0.039,0,0.078-0.004,0.117-0.011c0.106-0.02,0.205-0.065,0.288-0.131c0.217,0.018,0.386-0.013,0.524-0.066
		c0.633,0.446,1.222,0.981,1.826,1.548c0.922,0.863,1.876,1.756,3.077,2.325c0.298,0.14,0.616,0.215,0.924,0.288
		c0.546,0.131,0.837,0.22,0.978,0.422c-0.522,1.339-0.913,2.688-1.163,4.018c-1.074,1.108-1.892,2.424-2.684,3.698
		c-0.965,1.552-1.876,3.017-3.2,4.118c-0.16,0.134-0.247,0.336-0.232,0.544c0.022,0.335,0.021,0.694,0.02,1.061
		c-0.001,0.373,0.008,0.771,0.033,1.171H46.236z M40.921,262.444h3.382c0.108,0.674,0.268,1.321,0.505,1.922h-2.267
		C41.975,263.749,41.438,263.105,40.921,262.444z M34.163,242.864c0-0.464,0.013-0.924,0.032-1.383h5.887
		c0.016,0.004,0.031,0.014,0.047,0.016c1.072,0.142,1.988,0.715,2.879,1.438c-0.243,0.13-0.473,0.289-0.691,0.468h-8.141
		C34.174,243.224,34.163,243.045,34.163,242.864z M43.094,221.932c1.475,0.048,2.869,0.093,4.241,0.464
		c0.091,0.025,0.186,0.031,0.278,0.014l0.148-0.023c0.287-0.044,0.645-0.098,0.997-0.306c0.301-0.183,0.518-0.444,0.708-0.676
		c0.064-0.078,0.136-0.164,0.205-0.238c0.407,0.423,0.807,0.687,1.185,0.841c-0.507,0.41-1.097,0.737-1.708,1.075
		c-0.678,0.375-1.379,0.764-1.997,1.29c-0.115,0.098-0.192,0.232-0.218,0.381c-0.145,0.817,0.12,1.681,0.725,2.369
		c0.574,0.653,1.354,1.013,2.073,0.989c0.147-0.007,0.288-0.063,0.398-0.161c0.637-0.559,1-1.342,1.35-2.099
		c0.221-0.478,0.434-0.937,0.695-1.296c0.169,0.275,0.422,0.646,0.898,0.754c0.534,0.184,0.933-0.006,1.175-0.12
		c0.137-0.065,0.166-0.074,0.193-0.067c0.169,0.044,0.426,0.306,0.592,0.775c0.172,0.487,0.175,1.009,0.017,1.324
		c-0.229,0.106-0.506,0.138-0.821,0.173c-0.458,0.051-0.979,0.108-1.479,0.417c-0.703,0.424-1.137,1.142-1.52,1.774
		c-0.51,0.844-0.864,1.361-1.472,1.447c-0.109,0.016-0.212,0.058-0.3,0.124c-0.284,0.214-0.692,0.56-0.978,1.158
		c-0.083,0.23-0.149,0.468-0.214,0.706l-0.062,0.223c-0.216,0.277-0.498,0.526-0.795,0.787c-0.431,0.38-0.92,0.812-1.234,1.4
		c-0.364-0.301-0.795-0.49-1.28-0.555c-1.215-0.161-2.57,0.519-3.374,1.688c-0.799,1.166-0.873,2.536-0.203,3.76
		c0.035,0.062,0.079,0.119,0.131,0.167c-0.321-0.117-0.656-0.207-1.008-0.263c-0.147-0.106-0.293-0.271-0.446-0.453
		c-0.338-0.803-0.807-1.624-1.302-2.491c-1.961-3.435-3.052-5.856-0.449-8.137c0.081-0.07,0.142-0.16,0.18-0.26
		c0.279-0.74,0.34-1.591,0.198-2.379c0.977-1.646,2.099-3.193,3.35-4.629C42.347,221.898,42.72,221.92,43.094,221.932z
		 M58.127,219.77c-1.304,0.113-2.212,0.891-3.019,1.58c-0.059,0.051-0.117,0.101-0.176,0.15c-0.024-0.017-0.038-0.031-0.043-0.041
		c-0.073-0.131,0.082-0.601,0.174-0.881c0.109-0.331,0.221-0.673,0.237-1.012c0.005-0.109-0.018-0.219-0.066-0.316
		c-0.149-0.304-0.361-0.522-0.602-0.685c0.088-0.016,0.169-0.033,0.237-0.056c0.529-0.095,1.063-0.155,1.599-0.216
		c0.338-0.039,0.676-0.077,0.924-0.117l1.729-0.002l0.765,0.001C59.342,218.759,58.75,219.347,58.127,219.77z M74.093,234.649
		c0.01,0.15,0.02,0.303,0.027,0.453c-0.246-0.058-0.498-0.099-0.754-0.14c-0.164-0.029-0.328,0.01-0.464,0.101l-0.276,0.184
		c-0.083,0.055-0.152,0.128-0.202,0.215c-0.038,0.066-0.065,0.133-0.082,0.196c-0.231-0.002-0.465-0.043-0.698-0.08
		c-0.689-0.113-1.479-0.147-2.086,0.17c-0.42-0.041-1.215-0.151-1.634,0.341c-0.01,0.012-0.02,0.023-0.028,0.036
		c-0.526-0.562-0.654-0.562-0.871-0.562c-0.188,0-0.371,0.085-0.496,0.224c-0.359-0.328-0.707-0.678-1.007-1.052
		c-0.145-0.181-0.374-0.272-0.604-0.236c-0.19,0.028-0.38,0.066-0.571,0.104c-0.314,0.063-0.611,0.123-0.894,0.133
		c-0.162,0.005-0.316,0.071-0.433,0.185c-0.722,0.706-1.877,1.334-2.244,1.35c-0.282-0.138-0.51-0.682-0.456-0.857
		c0.029-0.042,0.154-0.096,0.272-0.123l1.133,0.295c0.173,0.045,0.354,0.018,0.504-0.075c0.151-0.092,0.257-0.242,0.295-0.415
		c0.037-0.166,0.115-0.584,0.091-1.011c0.668-0.297,1.257-0.728,1.83-1.146c0.151-0.111,0.302-0.222,0.453-0.328
		c0.325,0.065,0.667,0.099,1.004,0.099c1.75,0,2.858-0.886,2.893-2.312c0.002-0.095-0.017-0.189-0.055-0.276
		c-0.136-0.31-0.385-0.466-0.562-0.562c-0.007-0.136-0.049-0.241-0.079-0.3c-0.083-0.162-0.299-0.435-0.825-0.435
		c-0.141,0-0.264,0.02-0.264,0.02c-0.08,0.013-0.16,0.04-0.23,0.082c-0.651,0.381-1.521,0.809-1.748,0.836
		c-0.125,0.008-0.237,0.038-0.335,0.078l0.583-0.342c0.043-0.025,0.084-0.056,0.12-0.091c0.659-0.628,1.865-1.512,2.509-1.513
		c0.27,0.035,0.488,0.213,0.824,0.5c0.337,0.289,0.72,0.616,1.258,0.758c0.044,0.012,0.089,0.019,0.134,0.021
		c0.949,0.04,1.87-0.168,2.749-0.375c0.641-0.15,1.25-0.294,1.85-0.333c-0.219,0.178-0.424,0.42-0.492,0.771
		c-0.02,0.104-0.014,0.212,0.018,0.313c0.146,0.476,0.391,0.905,0.627,1.32c0.311,0.544,0.586,1.025,0.607,1.521
		c-0.02-0.003-0.038-0.006-0.057-0.009c-0.356-0.051-0.707-0.048-0.998,0.095c-0.208,0.101-0.346,0.305-0.363,0.535
		C74.024,233.533,74.06,234.101,74.093,234.649z M79.356,243.775c-0.014-0.024-0.027-0.047-0.043-0.069
		c0.312,0.12,0.625,0.249,0.944,0.38c0.487,0.2,0.989,0.406,1.503,0.586c0.174,0.411,0.309,0.873,0.444,1.353h-4.489
		c0.691-0.501,1.314-1.052,1.637-1.583C79.476,244.236,79.478,243.98,79.356,243.775z M90.905,248.401
		c-0.064-0.088-0.131-0.192-0.195-0.294l0.139-0.931c0-0.001-0.107-0.09-0.133-0.357c-0.004-0.048-0.014-0.096-0.029-0.142
		c-0.005-0.016-0.014-0.027-0.019-0.043c0.013,0.017,0.03,0.04,0.04,0.052C90.978,247.21,91.155,247.951,90.905,248.401z
		 M88.858,247.74c0.033,0.152-0.012,0.349-0.064,0.575c-0.023,0.103-0.045,0.216-0.065,0.328h-3.3c0-0.001,0.002-0.003,0.002-0.004
		c0.023-0.218,0.037-0.445,0.051-0.676c0.057-0.986,0.121-1.605,0.709-1.887c0.082-0.039,0.156-0.097,0.216-0.167
		c0.352-0.417,0.762-0.633,1.041-0.565c0.251,0.066,0.448,0.389,0.544,0.886c0.015,0.078,0.043,0.152,0.086,0.22
		c0.288,0.467,0.73,0.574,1.056,0.623C88.919,247.221,88.802,247.479,88.858,247.74z M77.464,247.004
		c-0.076-0.138-0.207-0.228-0.352-0.28h5.295c0.191,0.67,0.416,1.327,0.736,1.92h-6.189c0.199-0.346,0.384-0.7,0.541-1.072
		C77.571,247.388,77.561,247.179,77.464,247.004z M74.284,248.297c0.077,0.095,0.18,0.166,0.295,0.206
		c0.305,0.103,0.645,0.097,0.938,0.016c-0.397,0.618-0.854,1.217-1.326,1.835c-0.555,0.727-1.127,1.479-1.646,2.351
		c-0.355,0.793-0.271,1.587-0.197,2.288c0.052,0.487,0.101,0.946,0.012,1.31c-0.039,0.121-0.163,0.205-0.438,0.367
		c-0.352,0.208-0.832,0.491-1.012,1.111c-0.02,0.065-0.027,0.133-0.025,0.2c0.027,0.968-0.504,2.185-1.322,3.026
		c-0.793,0.815-1.707,1.158-2.522,0.916c-0.239-0.71-0.317-1.486-0.399-2.303c-0.109-1.101-0.224-2.238-0.754-3.3l0-0.057
		c-0.003-0.181-0.007-0.367,0.027-0.459c0.051-0.128,0.12-0.252,0.187-0.375c0.246-0.455,0.582-1.077,0.284-1.854
		c-0.022-0.06-0.054-0.115-0.093-0.165c-0.481-0.622-1.222-1.839-0.777-2.991c0.061-0.159,0.058-0.335-0.009-0.491
		c-0.478-1.114-1.51-1.728-2.904-1.728c-0.957,0-1.863,0.278-2.407,0.486c-0.833-0.171-1.446-0.644-1.822-1.409
		c-0.643-1.306-0.518-3.41,0.28-4.96c0.8-0.546,1.364-1.28,1.91-1.992c0.164-0.213,0.328-0.427,0.498-0.634
		c0.479-0.07,0.959-0.182,1.425-0.289c0.796-0.184,1.574-0.354,2.264-0.337c-0.048,0.238-0.086,0.557,0.078,0.889
		c0.055,0.109,0.14,0.202,0.245,0.266c0.571,0.349,1.225,0.616,1.858,0.875l0.52,0.216c0.112,0.047,0.237,0.062,0.361,0.043
		c0.48-0.08,0.693-0.418,0.805-0.666c0.164,0.056,0.336,0.108,0.508,0.161c0.631,0.193,1.283,0.393,1.547,0.719
		c0.607,0.9,1.05,1.896,1.518,2.95C72.763,245.812,73.356,247.149,74.284,248.297z M88.812,261.731
		c-0.04,0.008-0.073,0.008-0.11,0.014h-0.575c-0.106-0.535-0.46-0.853-0.694-1.06s-0.294-0.276-0.305-0.408
		c-0.014-0.186-0.107-0.356-0.255-0.468c-0.292-0.223-0.623-0.335-0.982-0.335c-0.595,0-1.132,0.314-1.563,0.567
		c-0.05,0.029-0.1,0.059-0.147,0.086c-0.007,0-0.013,0-0.021,0c-0.631,0-0.869,0.597-1.012,0.964c0-0.004-0.001-0.009-0.001-0.013
		c-0.001-0.036-0.005-0.072-0.013-0.107c-0.112-0.563,0.054-1.153,0.229-1.777c0.14-0.494,0.282-1.002,0.313-1.553
		c1.049-0.26,1.997-0.892,2.879-1.918c0.043,0.018,0.088,0.034,0.136,0.048c0.19,0.052,0.396,0.017,0.558-0.1
		c0.141-0.103,0.291-0.245,0.448-0.396c0.042-0.041,0.093-0.091,0.149-0.142c-0.035,0.115-0.037,0.239-0.004,0.356
		c0.176,0.646,0.796,1.316,1.526,1.316c0.128,0,0.255-0.021,0.377-0.061c0.124-0.042,0.231-0.119,0.311-0.222
		c0.103,0.506,0.36,0.937,0.595,1.33c0.438,0.734,0.578,1.059,0.316,1.51C90.353,260.269,89.515,261.072,88.812,261.731z
		 M73.306,257.202h9.114c-0.011,0.05-0.039,0.095-0.038,0.146c0.016,0.481-0.123,0.973-0.27,1.493
		c-0.025,0.091-0.051,0.188-0.076,0.282h-9.985c0.084-0.351,0.132-0.7,0.134-1.04c0.055-0.087,0.176-0.165,0.397-0.296
		C72.808,257.655,73.081,257.479,73.306,257.202z M71.827,259.823h10.049c-0.078,0.429-0.113,0.88-0.026,1.353
		c0.012,0.189,0.066,0.383,0.142,0.569h-11.35C71.158,261.174,71.563,260.511,71.827,259.823z M86.665,261.745h-2.379
		c0.025-0.061,0.049-0.118,0.068-0.17c0.014-0.037,0.031-0.081,0.049-0.124c0.061-0.012,0.121-0.032,0.178-0.061
		c0.129-0.066,0.264-0.145,0.403-0.227c0.32-0.188,0.682-0.393,0.929-0.389c0.145,0.429,0.443,0.694,0.657,0.883
		C86.61,261.693,86.634,261.717,86.665,261.745z M83.113,256.432c-0.05,0.009-0.103,0.044-0.154,0.071h-9.324
		c0.11-0.57,0.062-1.118,0.005-1.647c-0.01-0.094-0.018-0.181-0.026-0.271h12.188C84.957,255.661,84.077,256.271,83.113,256.432z
		 M58.464,240.782H44.761c0.022-0.051,0.045-0.103,0.071-0.159c0.162-0.357,0.346-0.762,0.338-1.241
		c-0.003-0.215-0.122-0.401-0.297-0.52h15.193c-0.182,0.221-0.361,0.443-0.537,0.672C59.183,239.986,58.843,240.415,58.464,240.782z
		 M44.68,242.652c-0.143-0.128-0.287-0.255-0.433-0.38c0.165-0.007,0.313-0.049,0.428-0.09
		C44.693,242.323,44.689,242.484,44.68,242.652z M44.043,238.926c-0.69,0.444-1.227,0.751-1.67,0.602
		c-0.106-0.232-0.162-0.454-0.188-0.665h1.956L44.043,238.926z M43.395,240.731c-0.07,0.246-0.107,0.515-0.065,0.804
		c-0.354-0.261-0.721-0.499-1.107-0.701C42.624,240.914,43.022,240.856,43.395,240.731z M45.816,241.481h11.835
		c-0.019,0.025-0.049,0.04-0.064,0.068c-0.293,0.529-0.527,1.17-0.69,1.854H46.543c-0.064-0.029-0.121-0.069-0.187-0.097
		c-0.039-0.017-0.08-0.029-0.122-0.038c-0.095-0.02-0.196-0.037-0.292-0.057c0.004-0.064,0.007-0.127,0.013-0.192
		C45.993,242.553,46.024,241.997,45.816,241.481z M56.761,244.103c-0.096,0.634-0.119,1.285-0.052,1.922h-6.712
		c-0.091-0.085-0.181-0.166-0.272-0.252c-0.622-0.583-1.267-1.167-1.984-1.67H56.761z M56.828,246.724
		c0.088,0.392,0.203,0.774,0.376,1.128c0.144,0.292,0.315,0.555,0.509,0.792h-3.175c-0.422-0.338-0.96-0.469-1.4-0.573
		c-0.255-0.061-0.497-0.118-0.671-0.199c-0.609-0.289-1.154-0.694-1.686-1.147H56.828z M64.083,251.265h-9.427
		c0.143-0.428,0.295-0.854,0.464-1.272c0.053-0.133,0.062-0.279,0.023-0.418c-0.024-0.085-0.058-0.156-0.09-0.231h3.426
		c0.483,0.333,1.044,0.561,1.685,0.658c0.119,0.019,0.236,0.004,0.345-0.041c0.71-0.292,1.472-0.46,2.091-0.46
		c1.019,0,1.428,0.432,1.606,0.731C64.11,250.564,64.073,250.911,64.083,251.265z M54.433,251.964h9.735
		c0.134,0.634,0.425,1.281,0.868,1.922H53.961C54.084,253.255,54.241,252.611,54.433,251.964z M53.682,254.585h11.392
		c-0.033,0.066-0.072,0.141-0.118,0.226c-0.091,0.169-0.181,0.338-0.256,0.526c-0.125,0.337-0.119,0.678-0.114,0.951l0.002,0.187
		c0,0.01,0.007,0.019,0.007,0.028H52.14C52.609,255.813,53.105,255.163,53.682,254.585z M51.673,257.202h13.168
		c0.24,0.596,0.36,1.241,0.438,1.922H50.464c0.206-0.321,0.408-0.645,0.608-0.965C51.274,257.835,51.473,257.516,51.673,257.202z
		 M49.995,259.823h15.359c0.064,0.635,0.139,1.282,0.291,1.922H48.47C49.036,261.146,49.537,260.498,49.995,259.823z
		 M71.132,240.206c-0.023,0.011-0.036,0.036-0.059,0.049c-0.483-0.303-1.047-0.489-1.57-0.649c-0.307-0.094-0.607-0.184-0.865-0.299
		c-0.16-0.071-0.344-0.076-0.507-0.011c-0.353,0.141-0.519,0.423-0.612,0.637l-0.098-0.041c-0.475-0.194-0.963-0.394-1.388-0.619
		c0.002-0.012,0.005-0.022,0.007-0.033c0.056-0.25,0.149-0.668-0.094-1.086c-0.095-0.164-0.257-0.278-0.444-0.312
		c-1.03-0.194-2.234,0.046-3.312,0.295c-0.042,0.01-0.082,0.018-0.123,0.027h-19.85c0.08-0.364,0.24-0.661,0.377-0.862
		c0.516-0.753,1.413-1.228,2.13-1.135c0.543,0.072,0.94,0.457,1.181,1.144c0.109,0.314,0.442,0.497,0.76,0.418
		c0.323-0.074,0.538-0.38,0.499-0.709c-0.036-0.306,0.011-0.549,0.093-0.775h11.918c0.197,0.507,0.562,0.968,1.021,1.192
		c0.158,0.079,0.339,0.119,0.541,0.119c0.91,0,2.254-0.862,3.009-1.536c0.297-0.028,0.58-0.085,0.855-0.141
		c0.052-0.01,0.104-0.021,0.155-0.031c0.48,0.546,1.021,1.025,1.541,1.466c0.145,0.124,0.337,0.178,0.527,0.146
		c0.137-0.023,0.261-0.088,0.355-0.185c0.16,0.18,0.361,0.413,0.61,0.71c0.124,0.148,0.308,0.233,0.499,0.233
		c0.025,0,0.051-0.002,0.077-0.005c0.177-0.021,0.387-0.148,0.493-0.29c0.169-0.226,0.221-0.587,0.23-0.901
		c0.26,0.005,0.506,0.039,0.518,0.041c0.035,0.004,0.07-0.004,0.105-0.005c-0.066,0.694,0.092,1.232,0.492,1.591
		c0.342,0.306,0.793,0.395,1.214,0.397C71.399,239.576,71.238,240.1,71.132,240.206z M56.351,225.765h19.098l-0.373,1.404
		c-0.833,0.003-1.698,0.175-2.501,0.362c-0.759,0.179-1.475,0.347-2.186,0.347l-0.132-0.003c-0.226-0.079-0.438-0.261-0.681-0.469
		c-0.373-0.318-0.836-0.716-1.526-0.805c-0.845-0.08-1.871,0.528-2.613,1.081h-9.174C56.526,227.069,56.503,226.355,56.351,225.765z
		 M54.374,228.687c0.388-0.043,0.818-0.102,1.244-0.305h8.974c-0.01,0.009-0.026,0.023-0.035,0.031l-1,0.586
		c-0.204,0.119-0.327,0.341-0.321,0.577c0.004,0.167,0.03,0.442,0.092,0.729h-1.614c-0.011-0.026-0.022-0.051-0.033-0.077
		c-0.057-0.143-0.112-0.281-0.17-0.41c-0.121-0.266-0.406-0.424-0.693-0.373c-0.292,0.046-0.535,0.232-0.664,0.511
		c-0.051,0.109-0.067,0.229-0.078,0.35h-7.76c0.01-0.016,0.02-0.031,0.029-0.047c0.334-0.553,0.651-1.076,1.085-1.338
		C53.686,228.763,54.005,228.728,54.374,228.687z M51.865,231.005h8.333c-0.069,0.127-0.093,0.255-0.092,0.36
		c0,0.061,0.009,0.121,0.026,0.179c-0.075,0.239-0.006,0.504,0.183,0.676c0.176,0.16,0.409,0.245,0.675,0.245h0
		c0.418,0,0.965-0.224,1.2-0.65c0.131-0.237,0.101-0.531-0.076-0.736c-0.017-0.02-0.029-0.052-0.045-0.073h1.54
		c0.073,0.113,0.148,0.226,0.253,0.307c0.095,0.072,0.208,0.118,0.326,0.131c0.021,0.002,0.074,0.005,0.101,0.006
		c-0.205,0.142-0.408,0.29-0.613,0.439c-0.566,0.414-1.107,0.799-1.681,1.037H49.647c0.01-0.034,0.022-0.075,0.032-0.104
		c0.09-0.187,0.23-0.354,0.446-0.532C50.93,232.115,51.449,231.593,51.865,231.005z M49.329,233.914
		c0.042-0.059,0.073-0.124,0.094-0.192l0.027-0.098h11.772c-0.009,0.126,0.005,0.252,0.072,0.365c0.012,0.03,0.02,0.081,0.023,0.146
		l-0.53-0.139c-0.073-0.019-0.15-0.027-0.224-0.019c-0.122,0.012-1.198,0.137-1.48,1.036c-0.052,0.165-0.064,0.346-0.057,0.529
		h-11.32c0.161-0.17,0.345-0.343,0.565-0.537C48.638,234.683,49.019,234.349,49.329,233.914z M64.88,231.271
		c0.086-0.055,0.158-0.112,0.215-0.158c0.032-0.026,0.063-0.055,0.053-0.059c0.49-0.057,1.321-0.474,1.864-0.77
		c0.136,0.182,0.314,0.292,0.439,0.36c-0.182,0.622-0.922,0.763-1.551,0.763c-0.327,0-0.67-0.044-0.967-0.124
		C64.916,231.279,64.898,231.274,64.88,231.271z M75.778,224.527l-0.143,0.538H56.077c-0.313-0.624-0.768-1.06-1.299-1.199
		c-0.492-0.133-0.864,0.044-1.086,0.149c-0.059,0.027-0.147,0.069-0.173,0.07l-0.1-0.021c-0.039-0.031-0.116-0.158-0.167-0.243
		c-0.126-0.207-0.318-0.506-0.634-0.679h23.715L75.778,224.527z M51.498,223.144h0.237c-0.008,0.006-0.018,0.008-0.025,0.014
		c-0.673,0.56-1.047,1.367-1.409,2.148c-0.262,0.565-0.512,1.105-0.847,1.486c-0.276-0.062-0.579-0.254-0.819-0.528
		c-0.285-0.324-0.439-0.702-0.44-1.064c0.473-0.365,1.014-0.665,1.583-0.979C50.361,223.896,50.951,223.56,51.498,223.144z
		 M51.992,218.801c0.07,0.158,0.201,0.281,0.362,0.343c0.219,0.084,0.464,0.146,0.713,0.206c0.436,0.105,0.74,0.189,0.905,0.345
		c-0.009,0.039-0.027,0.089-0.04,0.131h-3.761c-0.128-0.087-0.274-0.143-0.432-0.121c-0.156,0.02-0.295,0.062-0.422,0.121h-5.382
		c0.703-0.674,1.438-1.314,2.203-1.922h6.101c-0.105,0.11-0.197,0.237-0.26,0.4C51.917,218.465,51.922,218.644,51.992,218.801z
		 M53.719,220.524c-0.147,0.5-0.247,1.059,0.033,1.564c0.075,0.136,0.179,0.25,0.297,0.355h-1.783
		c0.172-0.185,0.344-0.37,0.495-0.59c0.153-0.223,0.152-0.517-0.002-0.738c-0.154-0.223-0.43-0.324-0.691-0.26
		c-0.164,0.042-0.585,0.141-1.174-0.332H53.719z M36.297,235.544h-1.299c0.165-0.712,0.356-1.414,0.567-2.106
		C35.72,234.149,35.98,234.855,36.297,235.544z M36.637,236.243c0.298,0.581,0.621,1.146,0.929,1.687
		c0.045,0.079,0.088,0.155,0.132,0.233h-3.195c0.094-0.647,0.212-1.286,0.344-1.92H36.637z M38.09,238.862
		c0.288,0.522,0.549,1.025,0.744,1.502c0.025,0.062,0.064,0.124,0.107,0.176c0.066,0.079,0.145,0.16,0.217,0.242h-4.921
		c0.041-0.646,0.101-1.285,0.179-1.92H38.09z M41.623,244.103c-0.178,0.224-0.342,0.458-0.473,0.709
		c-0.089,0.171-0.098,0.372-0.024,0.55c0.095,0.229,0.099,0.44,0.055,0.663h-6.86c-0.062-0.635-0.102-1.276-0.126-1.922H41.623z
		 M40.917,246.724c-0.046,0.092-0.087,0.179-0.142,0.281c-0.249,0.473-0.53,1.016-0.588,1.639h-5.489
		c-0.117-0.634-0.214-1.273-0.293-1.92H40.917z M40.23,249.343c0.042,0.207,0.103,0.42,0.211,0.644
		c0.119,0.38,0.278,0.757,0.511,1.179c0.025,0.036,0.057,0.064,0.083,0.1h-5.739c-0.174-0.634-0.334-1.273-0.469-1.922H40.23z
		 M41.637,251.964c0.167,0.17,0.335,0.337,0.503,0.497c0.482,0.461,0.931,0.904,1.212,1.425h-7.221
		c-0.233-0.631-0.443-1.273-0.637-1.922H41.637z M43.603,254.585c0.16,0.591,0.266,1.229,0.324,1.918h-6.689
		c-0.299-0.628-0.572-1.269-0.83-1.918H43.603z M43.973,257.202c0.029,0.532,0.051,1.076,0.067,1.638
		c0.003,0.094,0.006,0.189,0.009,0.284h-5.408c-0.374-0.627-0.723-1.269-1.054-1.922H43.973z M44.073,259.823
		c0.025,0.642,0.063,1.288,0.135,1.922h-3.824c-0.46-0.623-0.895-1.266-1.31-1.922H44.073z M47.856,263.199
		c0-0.257,0-0.509-0.007-0.755h18.006c0.027,0.075,0.046,0.152,0.076,0.228c0.063,0.155,0.184,0.28,0.338,0.349
		c0.417,0.186,0.856,0.28,1.302,0.28c0.787,0,1.587-0.305,2.312-0.856H82.53c0.146,0.098,0.316,0.169,0.512,0.203
		c0.035,0.006,0.135,0.015,0.172,0.015c0.252,0,0.447-0.089,0.604-0.218h3.091c0.048,0.115,0.123,0.219,0.23,0.291
		c0.338,0.228,0.753,0.343,1.233,0.343c0.282,0,0.589-0.04,0.91-0.12c0.108-0.026,0.207-0.08,0.289-0.156
		c0.119-0.112,0.25-0.236,0.377-0.357h1.154c-0.516,0.661-1.054,1.305-1.619,1.922H47.882
		C47.857,263.994,47.855,263.602,47.856,263.199z M90.657,261.745c0.488-0.501,0.981-1.056,1.41-1.687
		c0.047-0.08,0.074-0.157,0.109-0.235h0.773c-0.414,0.656-0.85,1.299-1.309,1.922H90.657z M92.378,259.124
		c0.074-0.769-0.299-1.413-0.604-1.922h2.662c-0.33,0.653-0.68,1.295-1.054,1.922H92.378z M91.408,256.503
		c-0.065-0.167-0.106-0.331-0.095-0.493c0.009-0.114-0.014-0.229-0.062-0.331c-0.131-0.269-0.187-0.633-0.241-0.984
		c-0.006-0.038-0.015-0.071-0.021-0.109h4.627c-0.258,0.649-0.531,1.29-0.83,1.918H91.408z M90.806,253.886
		c-0.091-0.171-0.234-0.309-0.43-0.347c-0.244-0.053-0.498,0.051-0.647,0.254c-0.021,0.029-0.034,0.062-0.055,0.093h-0.665
		c-0.297-0.256-0.596-0.327-0.811-0.327c-0.336,0-0.623,0.144-0.877,0.327H73.585c0.008-0.213,0.035-0.41,0.109-0.581
		c0.274-0.456,0.59-0.901,0.914-1.341h21.921c-0.194,0.648-0.403,1.291-0.637,1.922H90.806z M75.133,251.265
		c0.03-0.04,0.062-0.082,0.091-0.122c0.443-0.582,0.893-1.176,1.302-1.8h7.097c0.098,0.118,0.18,0.248,0.294,0.354
		c0.124,0.115,0.283,0.175,0.442,0.175c0.137,0,0.273-0.043,0.389-0.129c0.161-0.12,0.273-0.26,0.365-0.4h4.889
		c0.254,0.294,0.551,0.511,0.938,0.511c0.009,0,0.019,0,0.028,0c0.342-0.01,0.637-0.191,0.875-0.511h5.354
		c-0.135,0.648-0.295,1.288-0.469,1.922H75.133z M92.208,248.644c0.195-0.602,0.122-1.289-0.09-1.92h5.5
		c-0.078,0.646-0.176,1.286-0.293,1.92H92.208z M91.823,246.024c-0.002-0.001-0.002-0.003-0.002-0.004
		c-0.102-0.147-0.208-0.293-0.32-0.429c-0.058-0.188,0.023-0.529,0.186-0.754c0.178-0.244,0.389-0.28,0.902-0.314
		c0.19-0.012,0.379-0.026,0.559-0.059c0.066-0.012,0.129-0.033,0.188-0.064c0.165-0.086,0.291-0.192,0.416-0.298h4.078
		c-0.024,0.646-0.062,1.287-0.126,1.922H91.823z M94.294,243.403c0.258-0.569,0.262-1.243,0.154-1.922h3.381
		c0.019,0.459,0.031,0.919,0.031,1.383c0,0.181-0.01,0.359-0.014,0.539H94.294z M94.31,240.782
		c-0.078-0.319-0.162-0.633-0.244-0.923c-0.049-0.17-0.096-0.335-0.139-0.494c0.195,0.232,0.426,0.43,0.689,0.538
		c0.327,0.137,0.68,0.126,0.994-0.031c0.17-0.085,0.294-0.239,0.34-0.423c0.047-0.184,0.011-0.378-0.098-0.533
		c-0.013-0.018-0.02-0.036-0.031-0.054h1.785c0.079,0.635,0.139,1.274,0.18,1.92H94.31z M95.545,238.163
		c-0.104-0.581,0.036-1.219,0.214-1.92h1.413c0.132,0.634,0.251,1.272,0.346,1.92H95.545z M95.931,235.544
		c0.148-0.634,0.255-1.296,0.141-1.92h0.438c0.189,0.633,0.362,1.271,0.513,1.92H95.931z M79.319,221.534
		c-0.4,0.425-0.702,0.72-0.946,0.91H55.828c0.042-0.036,0.084-0.07,0.127-0.106c0.749-0.642,1.456-1.247,2.408-1.281
		c0.115-0.004,0.227-0.039,0.324-0.101c0.203-0.129,0.399-0.279,0.593-0.432h21.092C80.003,220.819,79.657,221.177,79.319,221.534z
		 M61.333,217.204c-0.298-0.185-0.622-0.229-0.872-0.256c-0.099-0.011-0.199-0.019-0.29-0.045c-0.059-0.018-0.12-0.026-0.181-0.027
		l-0.868-0.001l-1.818,0.008c-0.327,0.045-0.654,0.082-0.982,0.119c-0.477,0.055-0.96,0.115-1.477,0.202H47.05
		c0.94-0.692,1.921-1.334,2.94-1.922h9.2c1.344,0.248,2.312,0.297,2.407,0.301h7.005c0.058,0,0.114-0.008,0.17-0.023l1.024-0.277
		h12.221c1.016,0.587,1.993,1.23,2.932,1.922H61.333z M68.616,211.822h-5.065v-0.957h5.065V211.822z M54.014,213.51
		c0.799,0.447,1.638,0.797,2.456,1.073h-5.201c0.841-0.435,1.706-0.833,2.592-1.193C53.905,213.436,53.956,213.478,54.014,213.51z
		 M75.308,213.288h-3.039c-0.057,0-0.114,0.008-0.17,0.023l-3.584,0.971l-6.89,0.001c-0.033-0.001-2.799-0.138-5.501-1.211
		c1.416-0.417,3.614-1.017,5.903-1.471l-0.373,0.655c0.064,0.036,1.613,0.899,4.543,0.899c2.953,0,4.277-0.884,4.333-0.922
		l-0.513-0.755v-0.207c2.162,0.27,4.25,0.745,6.243,1.414L75.308,213.288z M68.616,209.865h-5.065v-25.129h5.065V209.865z
		 M43.225,220.524h5.284c-0.014,0.018-0.031,0.036-0.045,0.053c-0.131,0.158-0.267,0.322-0.373,0.388
		c-0.129,0.075-0.312,0.104-0.525,0.136l-0.026,0.005c-1.475-0.379-2.962-0.427-4.402-0.474c-0.004,0-0.009-0.001-0.014-0.001
		C43.157,220.596,43.19,220.56,43.225,220.524z M43.208,265.065h1.922c0.424,0.775,1.027,1.435,1.876,1.92h-1.755
		C44.542,266.375,43.86,265.735,43.208,265.065z M79.354,271.772c-0.081-0.065-0.175-0.115-0.28-0.136
		c-0.2-0.039-4.91-0.955-5.768-1.06c-0.119-0.016-0.203-0.021-0.266-0.021c-0.258,0-0.466,0.092-0.62,0.274
		c-0.159,0.057-0.767,0.202-2.901,0.267c-1.919,0.059-2.947,0.197-3.854,0.319c-1.272,0.17-2.34,0.312-5.444,0.208
		c-5.437-0.184-7.026,0.269-7.167,0.312c-0.003,0.001-0.006,0.004-0.009,0.005c-1.09-0.488-2.149-1.034-3.171-1.638h32.279
		C81.247,270.838,80.313,271.328,79.354,271.772z M56.146,272.911c0.998-0.036,2.321-0.044,4.031,0.013
		c3.239,0.109,4.391-0.049,5.661-0.219c0.919-0.124,1.869-0.252,3.72-0.309c2.493-0.075,3.295-0.255,3.656-0.521
		c0.516,0.072,2.057,0.356,3.516,0.634l-2.864,0.705l-6.962,1.47l-8.6-0.996L56.146,272.911z M48.746,269.604
		c-0.919-0.596-1.807-1.235-2.658-1.92h39.849c-0.852,0.685-1.738,1.324-2.658,1.92H48.746z M86.772,266.985H48.965
		c0.048-0.244-0.041-0.5-0.251-0.651c-0.42-0.301-0.633-0.745-0.743-1.269h40.844C88.163,265.735,87.481,266.375,86.772,266.985z
		 M91.448,223.617c-0.145-0.032-0.29-0.062-0.436-0.095c-1.664-0.366-3.383-0.745-5.088-1.054c-0.346-0.258-0.711-0.653-1.064-1.036
		c-0.273-0.295-0.574-0.619-0.902-0.908h4.821C89.733,221.497,90.627,222.529,91.448,223.617z M68.616,183.736h-5.065v-1.01
		c0.816,0.11,1.643,0.172,2.479,0.172c0.873,0,1.735-0.063,2.585-0.184V183.736z M66.031,181.598
		c-13.604,0-24.67-15.953-24.67-35.562c0-1.184,0.042-2.354,0.121-3.509c0.118-0.96,0.208-1.884,0.272-2.774
		c2.065-16.62,12.161-29.278,24.276-29.278c12.15,0,22.271,12.731,24.295,29.422c0.062,0.806,0.144,1.639,0.247,2.502
		c0.085,1.196,0.129,2.409,0.129,3.637C90.702,165.645,79.634,181.598,66.031,181.598z M43.408,127.939
		c-0.477-3.109-2.369-8.915-9.696-12.924v-1.535H53.86C49.481,116.789,45.848,121.823,43.408,127.939z M78.202,113.481h20.023v1.535
		c-7.152,3.914-9.127,9.543-9.661,12.702C86.125,121.702,82.527,116.749,78.202,113.481z M79.159,80.456
		c0.098,0.249,0.342,0.414,0.613,0.414h8.08v1.35c0.004,0,0.008,0,0.012,0v1.097c0,0.359,0.291,0.65,0.65,0.65h12.908h2.375h2.066
		v9.6c0,0.35,0.277,0.637,0.627,0.649c0.092,0.003,2.248,0.113,2.248,2.654c0,2.471-1.805,2.659-2.006,2.672
		c-0.344,0.017-0.615,0.299-0.619,0.643l-0.115,12.231l-1.201-0.001c0-0.001,0-0.002,0-0.003l-3.961-0.004l-0.006,4.532
		c-2.096,0.577-9.398,3.484-10.51,16.027c-0.285-1.062-0.602-2.101-0.951-3.113c-0.016-1.255,0.271-9.143,9.591-14.098l0.265-0.141
		v-3.133H76.81v0.027c-1.31-0.851-2.675-1.554-4.089-2.089l30.454-0.065v-0.005l0.574-0.001l0.135-24.788h-1.418h-2.375H86.495
		l-0.062-2.938l-8.693,0.004c-0.564-1.671-3.327-8.316-11.483-8.316c-8.183,0-11.43,6.651-12.092,8.25h-8.408v3H31.38h-2h-1.125
		l0.039,24.957l2.693-0.005v-0.004l28.282-0.06c-1.434,0.549-2.817,1.268-4.142,2.141v-0.107H32.712v3.133l0.265,0.141
		c10.07,5.354,9.61,13.912,9.585,14.274l0.065,0.004c-0.326,0.955-0.618,1.935-0.886,2.933
		c-1.123-12.509-8.413-15.409-10.507-15.986l-0.006-4.532l-4.43,0.005c0,0.001,0,0.001,0,0.002l-0.753,0.001l-0.116-12.231
		c-0.004-0.344-0.275-0.626-0.619-0.643c-0.201-0.013-2.006-0.201-2.006-2.672c0-2.542,2.157-2.651,2.249-2.654
		c0.349-0.013,0.626-0.3,0.626-0.649v-9.6h3.619h2.354H43.55c0.359,0,0.65-0.291,0.65-0.65V81.5c-0.017,0-0.027,0-0.043,0v-0.747
		l8.197,0.116c0.004,0,0.007,0,0.01,0c0.269,0,0.51-0.16,0.611-0.406c0.028-0.07,2.603-6.09,9.498-7.695
		c0.057,0.007,0.114,0.014,0.169,0.014c0.209,0,0.402-0.062,0.585-0.164c0.143-0.025,0.289-0.046,0.435-0.067
		c0.145,0.602,0.374,0.974,0.692,1.103c0.63,0.254,1.702,0.478,2.711,0.478c0.869,0,1.691-0.166,2.146-0.621
		c0.126-0.127,0.223-0.379,0.295-0.742C76.592,74.312,79.045,80.17,79.159,80.456z M66.031,109.174
		c-1.039,0-2.061,0.097-3.067,0.266l-33.671,0.072L29.257,86.56h0.123h2h15.376v-3l8.11,0l0.114-0.341
		c0.108-0.323,2.755-7.909,11.276-7.909c8.493,0,10.547,7.616,10.631,7.94l0.096,0.376l8.471-0.004l0.062,2.938h14.574h2.375h0.412
		l-0.123,22.79l-1.957,0.004v0.005l-31.771,0.068C68.043,109.266,67.044,109.174,66.031,109.174z M74.916,58.144
		c1.095,0.513,2.866,1.146,3.655,1.422c-0.015,0.721-0.178,1.933-0.84,2.567c-0.352,0.338-0.825,0.476-1.426,0.437
		c-0.021-0.017-0.039-0.032-0.06-0.049c-2.142-1.71-2.54-2.561-2.541-2.561l-1.126,0.415c0.066,0.178,0.516,1.165,2.918,3.083
		c2.203,1.755,2.13,1.864,0.906,3.674c-0.278,0.413-0.592,0.622-0.957,0.639c-0.598,0.042-1.372-0.458-2.05-1.263
		c-1.139-1.964-1.642-3.649-1.647-3.669l-1.152,0.336c0.033,0.11,0.807,2.718,2.67,5.357c0.398,0.564,0.508,1.038,0.334,1.448
		c-0.357,0.846-1.896,1.444-2.941,1.567c-0.473-0.35-0.904-1.901-1.093-3.015c-0.076-1.259-0.207-2.747-0.394-4.468l-1.193,0.13
		c0.15,1.386,0.277,2.868,0.365,4.203l-0.016,0.002c0.006,0.038,0.017,0.109,0.025,0.168c0.131,2.076,0.158,3.762,0.008,4.095
		c-0.402,0.403-2.33,0.346-3.492-0.096c-0.411-0.7-0.102-4.799,0.458-8.276l-1.185-0.19c-0.322,2.002-0.524,3.688-0.612,5.067
		c-0.319,1.892-0.845,2.436-0.92,2.412c-0.979-0.154-2.519-0.753-2.875-1.599c-0.173-0.41-0.064-0.884,0.334-1.448
		c1.872-2.649,2.593-5.51,2.623-5.631l-1.165-0.289c-0.006,0.023-0.489,1.924-1.651,3.977l0,0c-0.677,0.775-1.412,1.222-2.003,1.181
		c-0.359-0.022-0.667-0.231-0.942-0.637c-1.222-1.811-1.295-1.919,0.906-3.675c2.403-1.918,2.853-2.905,2.919-3.083l-1.119-0.433
		c-0.003,0.008-0.394,0.859-2.548,2.578c-0.021,0.017-0.04,0.033-0.061,0.05c-0.599,0.039-1.069-0.099-1.422-0.436
		c-0.666-0.636-0.828-1.872-0.841-2.593c0.805-0.33,2.736-1.126,3.843-1.639c1.323-0.614,3.186-2.076,3.869-3.688
		c0.181,0.582,0.356,1.16,0.52,1.766l0.298,1.116c0.734,2.779,1.178,4.458,3.004,4.514l0.077,0.001c1.603,0,2.03-1.428,2.571-3.236
		c0.15-0.502,0.316-1.058,0.523-1.655c0.193-0.552,0.454-1.355,0.747-2.313C71.315,56.235,73.579,57.517,74.916,58.144z
		 M74.914,48.201c-0.415,0.081-1.677,0.327-2.127,0.118c-0.183-0.084-0.264-0.154-0.296-0.186l-0.18-1.654
		c0.473-2.187,0.814-4.277,0.841-5.822c0.06,0.048,0.12,0.096,0.215,0.137c0.03,0.051,0.415,0.091,0.382,0.073l0.038-0.003
		l0.102-0.015l0.067-0.012l0.135-0.024l0.271-0.034C75.159,44.43,75.426,47.885,74.914,48.201z M79.913,47.582
		c-0.024,0.073-0.047,0.083-0.057,0.087c-0.604,0.267-2.15,0.625-2.757,0.029c-0.155-0.283-0.992-2.92-1.213-4.183
		c-0.177-1.183-0.401-2.279-0.555-2.983c0.046-0.024,0.094-0.035,0.139-0.064c0.111-0.09,0.286-0.244,0.321-0.308l0.092-0.121
		l0.023-0.03l0.006-0.007l0.032-0.047l0.021-0.038c0.004-0.006,0.006-0.013,0.01-0.02c0.166,0.213,0.42,0.328,0.615,0.359
		c0.199,0.035,0.368,0.027,0.527,0.009c0.023,0.04,0.044,0.076,0.066,0.116C79.513,44.691,80.133,46.935,79.913,47.582z
		 M82.892,45.484c-0.408,0.324-0.697,0.396-0.832,0.353c-0.312-0.125-1.494-1.516-3.95-5.851c0.038-0.017,0.077-0.028,0.115-0.046
		c0.312-0.165,0.618-0.303,0.931-0.682c0.156-0.234,0.225-0.463,0.254-0.682c0.029,0.034,0.045,0.064,0.076,0.099
		c0.064,0.056,0.049,0.063,0.18,0.156c0.053,0.036,0.115,0.071,0.164,0.093l0.06,0.023c0.347,0.072,0.393,0.02,0.565-0.01
		c0.219-0.068,0.375-0.167,0.52-0.27c3.312,3.502,3.542,4.247,3.555,4.31C84.56,43.409,83.809,44.76,82.892,45.484z M86.78,41.488
		c-0.182,0.162-0.458,0.329-0.733,0.198c-0.536-0.256-2.108-1.625-4.32-3.759c0.042-0.053,0.091-0.104,0.132-0.158
		c0.219-0.305,0.416-0.604,0.574-0.993l0.022-0.059c0.019-0.041,0.032-0.111,0.042-0.168c0.023-0.143,0.004-0.17,0.002-0.259
		c-0.016-0.126-0.041-0.231-0.068-0.326c-0.01-0.037-0.023-0.065-0.035-0.101c0.033,0.003,0.057,0.004,0.062,0.001l0.031-0.002
		l0.016,0l0.008,0l0.105-0.018l0.006-0.002l0.092-0.033c0.059-0.023,0.129-0.046,0.174-0.075c0.053-0.027,0.094-0.059,0.141-0.088
		c0.611,0.476,1.371,1.033,2.193,1.565c1.396,1.145,2.055,1.867,2.168,2.186C87.64,40.096,87.276,41.043,86.78,41.488z
		 M89.216,37.962c-0.805-0.104-1.963-0.637-3.332-1.511c-0.543-0.445-1.215-0.966-2.035-1.57c0.098-0.122,0.191-0.246,0.279-0.374
		c0.203-0.307,0.383-0.623,0.52-1.001c0.036-0.091,0.062-0.201,0.089-0.307c0.028-0.146,0.033-0.337,0.023-0.386
		c-0.006-0.052-0.02-0.077-0.029-0.117c0.021,0.013,0.038,0.027,0.06,0.04c0.088,0.044,0.166,0.09,0.289,0.13
		c0.104,0.03,0.288,0.104,0.583-0.008l-0.144,0.042c0.088-0.014,0.172-0.034,0.26-0.049c0.654,0.292,1.391,0.617,2.167,0.953
		c3.726,1.688,5.668,2.761,5.884,3.019C93.733,37.217,91.632,38.272,89.216,37.962z M96.308,35.771
		c-0.651,0.079-3.713-1.048-7.92-2.866c-0.334-0.151-0.678-0.306-1.048-0.47c0.345-0.126,0.687-0.271,1.026-0.458
		c0.229-0.138,0.458-0.284,0.676-0.527c0.055-0.058,0.124-0.161,0.178-0.245c0.054-0.089,0.057-0.117,0.088-0.178
		c0.148-0.498-0.053-0.639-0.11-0.797c-0.041-0.063-0.083-0.108-0.124-0.163c0.168,0.081,0.337,0.161,0.516,0.236
		c0.113,0.047,0.229,0.092,0.363,0.135c0.08,0.023,0.213,0.056,0.25,0.058h0.002c0.043,0.015,0.086,0.03,0.129,0.045l-0.002,0.007
		c0.698,0.251,1.648,0.589,2.693,0.954c3.554,1.321,6.198,2.521,6.711,3.076C99.175,35.349,97.697,35.615,96.308,35.771z
		 M100.926,32.932c-0.78-0.078-3.991-1.129-7.294-2.279c-0.562-0.208-1.131-0.414-1.697-0.614c0.004-0.002,0.008-0.003,0.012-0.005
		c0.434-0.217,0.837-0.466,1.229-0.731c0.195-0.132,0.385-0.271,0.574-0.412l0.28-0.219c0.096-0.11,0.134-0.029,0.386-0.403
		c0.012-0.024,0.009-0.053,0.018-0.079c7.146,1.609,10.656,2.604,11.713,3.051C105.241,31.888,102.149,33.058,100.926,32.932z
		 M111.333,27.752c-0.039,0.023-0.097,0.064-0.174,0.12c-0.385,0.277-1.407,1.012-3.363,1.604
		c-1.517,0.458-8.283-1.142-13.021-2.475c0.389-0.199,0.685-0.489,0.943-0.747c0.413-0.456,0.734-0.946,0.994-1.458
		c0.074-0.151,0.128-0.315,0.189-0.473c1.969,0.269,6.893,0.929,10.916,1.383c2.437,0.249,3.512,1.162,3.639,1.717
		C111.501,27.62,111.413,27.702,111.333,27.752z M116.521,23.298c0,0.001-0.018,0.075-0.183,0.208l-0.146,0.12
		c-0.471,0.393-1.574,1.313-2.725,1.534c-0.926,0.17-10.191-0.978-16.347-1.816c0-0.002,0-0.009-0.001-0.01l-0.004-0.046
		l-0.011-0.068l-0.014-0.053c-0.036-0.146-0.107-0.254-0.175-0.343c-0.022-0.025-0.043-0.041-0.064-0.062
		c0.172-0.028,0.322-0.062,0.425-0.11c0.419-0.198,1.116-0.676,1.819-1.275c2.535,0.05,6.385,0.12,7.954,0.12
		c0.03,0,0.048,0,0.077,0l-0.002,0.061C114.042,21.777,116.433,22.916,116.521,23.298z M122.604,17.418
		c-0.73,0.767-2.07,1.589-3.016,2.004c-1.488,0.652-8.645,0.931-10.997,1.023c-0.503,0.02-0.847,0.033-0.964,0.042
		c-0.33,0.025-3.105-0.01-7.494-0.093c0.637-0.678,1.149-1.397,1.266-2.007c0.034-0.176,0.027-0.323,0.008-0.459
		c8.104-0.783,20.445-1.796,21.512-1.394c0.115,0.064,0.123,0.114,0.125,0.131C123.062,16.782,122.958,17.048,122.604,17.418z"/>
	<path fill="#2F2483" d="M66.031,112.24c-13.145,0-23.839,15.161-23.839,33.797c0,18.637,10.694,33.797,23.839,33.797
		c13.144,0,23.839-15.16,23.839-33.797C89.87,127.401,79.175,112.24,66.031,112.24z M66.031,113.539
		c12.421,0,22.527,14.579,22.527,32.498c0,2.514-0.205,4.959-0.581,7.31l-4.455-6.5c-0.093-0.575-0.393-0.999-0.663-1.374
		c-0.244-0.34-0.422-0.588-0.418-0.865c0,0,0.521-0.689,0.211-1.09c-0.811-0.49-3.113-2.407-4.416-3.813
		c-0.918-0.992-2.393-2.602-2.393-2.602s-1.713-3.594-2.705-5.08c-0.676-1.012-1.375-2.059-1.766-3.162
		c-0.078-0.221-0.135-0.453-0.188-0.686c1.303-1.281,2.041-3.018,2.041-4.867c0-3.766-3.062-6.83-6.828-6.83
		c-3.767,0-6.831,3.064-6.831,6.83c0,1.135,0.293,2.23,0.823,3.219c-0.502,0.947-0.979,1.655-1.181,1.885
		c-0.332,0.379-1.102,1.762-1.626,3.205c-1.095,3.125-4.753,8.885-9.018,11.677c-0.14,0.824,0.61,0.793-0.275,2.26
		c-0.188,0.291-0.4,0.623-0.563,1.037l-0.033,0.084l0.02,0.088c0.003,0.016,0.012,0.026,0.015,0.041l-3.947,4.318
		c-0.181-1.656-0.277-3.354-0.277-5.084C43.504,128.118,53.61,113.539,66.031,113.539z M75.343,142.834c0,0-0.916,1.168-1.334,4.293
		c0.084,1.543-1.285,3.543-1.559,7.043s0.541,6.404,0.889,7.33c0.629,1.672,1.09,2.879,0.006,4.336
		c-1.084,1.459-1.053,1.988-1.326,2.352c-0.271,0.363-0.787,1.049-1.176,1.213c-0.631-3.895-0.166-7.754,0.326-11.832
		c0.443-3.674,0.547-10.617,0.547-10.617s-0.248,0.508-1.207-1.367c-0.957-1.875-0.799-5.329-0.639-8.479
		c0.113-2.225,0.229-4.516-0.068-6.365c0.508,0.373,1.221,1.76,1.225,2.85c0.002,1.092,0.182,5.195,0.381,7.639
		c0.096,1.169,0.191,2.333,0.262,3.511l0.592,0.053c0.066-0.283,0.152-0.562,0.236-0.842c0.07-0.232,0.139-0.463,0.209-0.744
		c0.113-1.242,0.67-2.556,1.531-3.604l0.523-0.639l-0.811,0.152c-0.996,0.189-1.352,1-1.625,1.779
		c-0.266-1.23-0.172-2.705-0.074-4.246c0.09-1.43,0.184-2.895-0.025-4.215c1.113,1.645,2.143,4.047,2.207,4.324
		c0.004,0.055,0.307,0.74,0.396,0.836c0,0,1.799,2.133,2.676,2.898c0.146,0.127,1.109,0.875,1.203,1.281c0,0-0.451,0.172-0.57,0.211
		c-0.377,0.127-0.807,0.271-1.025,0.773c-0.518,2.779-0.816,5.824-1.105,8.77c-0.334,3.416-0.678,6.939-1.369,10.061
		c-0.082-0.148-0.168-0.293-0.252-0.436c-0.406-0.688-1.578-4.828-0.602-8.758c0.977-3.932,1.934-8.473,1.934-8.473L75.343,142.834z
		 M62.308,173.982c-0.643,0-1.21,0.086-1.726,0.266c-0.014-0.33,0.232-0.775,0.455-1.178c0.147-0.266,0.286-0.516,0.373-0.758
		l0.018-0.096c0.066-3.629-0.463-7.445-0.975-11.137c-0.472-3.404-0.959-6.924-0.97-10.252c-0.007-2.211,0.216-6.131,1.691-8.833
		c0,0,1.859-0.623,3.345-0.66c1.485-0.035,3.522,0.531,3.649,0.673c1.529,2.205,1.883,5.326,2.137,8.601
		c0.131,1.703-0.484,10.326-0.699,11.896c-0.182,1.32-0.367,2.674-0.348,4.107c-0.945-1.826-1.65-4.283-2.076-6.938
		c-0.365-0.443-0.808-0.824-1.239-1.174c0.396,4.139,1.786,7.342,3.133,10.438c0.51,1.17,0.992,2.279,1.412,3.418
		c-0.436,0.318-1.076,0.465-1.748,0.621c-0.166,0.039-0.334,0.076-0.498,0.119c-1.92-3.814-4.954-15.943-5.283-22.258
		c-0.219-0.117-0.442,0.146-0.671,0.898c0.31,6.801,0.96,10.818,2,14.332c1.04,3.516,1.537,6.613,3.517,8.035
		c-0.926,0.344-2.16,0.244-3.458,0.064C63.679,174.078,62.989,173.982,62.308,173.982z M64.212,175.123
		c-0.032,0.125-0.1,0.223-0.184,0.342c-0.062,0.09-0.129,0.186-0.185,0.299c-0.266-0.062-0.475-0.188-0.708-0.33
		c-0.115-0.068-0.232-0.141-0.359-0.205C63.037,174.947,63.596,174.99,64.212,175.123z M51.895,143.318l-1.312,0.359
		c0,0-0.497,0.082-0.729,0.143c0.52-0.477,1.366-1.113,2.18-1.113c0.387,0,0.718,0.146,1.009,0.451
		c-0.012,0.117-0.239,1.172-0.338,1.273c-0.115,0.385-0.969,1.422-1.812,2.172c-0.28,0.25-0.561,0.5-0.824,0.768
		c-0.438-0.008-0.527-0.08-0.729-0.242c-0.116-0.094-0.267-0.217-0.505-0.35c0.378-1.555,3.249-2.85,3.249-2.85L51.895,143.318z
		 M62.171,125.62c0.338-1.41,0.964-5.701,4.501-5.685c2.625,0,3.061,1.696,3.346,5.757c0.254,2.594,0.482,3.324,1.111,4.592h-0.004
		c-0.229,0-0.58-0.441-1.375-0.875c-0.793-0.434-0.533-1.625-0.533-3.839s-1.375-3.797-2.25-4.005
		c-0.875-0.209-2.125,0.457-2.958,1.457s-1.016,2.758-0.996,5.568l-0.132,0.189c-0.552,0.695-1.037,0.939-1.668,1.107
		c-0.631,0.166-1.666-0.023-1.666-0.023S61.218,128.377,62.171,125.62z M60.811,125.678c-0.316-0.745-0.494-1.546-0.494-2.37
		c0-3.352,2.728-6.08,6.081-6.08c3.352,0,6.078,2.728,6.078,6.08c0,1.466-0.525,2.85-1.459,3.941
		c-0.092-0.711-0.125-1.441-0.15-2.161c-0.084-2.333-0.172-4.744-2.631-5.895c-0.553-0.119-1.076-0.179-1.555-0.179
		c-3.322,0-4.358,2.775-5.36,5.459C61.165,124.892,60.99,125.294,60.811,125.678z M64.723,138.868
		c-2.339,0.01-3.532,0.725-3.532,0.725s-0.288-0.15-0.422-0.871c-0.134-0.719,0.464-6.348,1.805-8.348
		c0.02-0.021,0.415-0.709,0.869-0.375c0.454,0.332,1.545,0.875,2.524,0.875c1.006,0,1.834-0.363,2.292-0.988
		c0,0,0.5,0.451,0.793,2.201c0.291,1.748-0.061,4.602-0.537,6.998c-0.025,0.123-0.049,0.242-0.072,0.357
		C68.288,139.397,66.415,138.966,64.723,138.868z M68.136,140.878c0,0-2.991-0.637-4.147-0.637s-2.5,0.469-2.5,0.469
		s0.406-1.188,3.5-1.031C67.364,139.772,68.136,140.878,68.136,140.878z M64.303,128.868c0.012-0.02,0.023-0.041,0.035-0.061
		c0.366,0.375,0.874,0.564,1.517,0.564c0.531,0,1.619,0.032,1.619,0.032s-0.084,0.865-1.457,0.784
		c-1.373-0.082-2.029-0.645-2.029-0.645S64.246,128.966,64.303,128.868z M64.278,123.89c0.612-0.102,1.021-0.408,1.388-0.684
		c0.26-0.195,0.508-0.381,0.816-0.491c1.549,0.445,1.928,1.976,1.777,3.168c-0.158,1.261-0.967,2.536-2.261,2.536h-0.001
		c-0.518-0.016-0.951-0.26-1.291-0.726C64.068,126.817,63.906,125.341,64.278,123.89z M59.749,131.206c0.551-0.133,1.038,0,1.038,0
		c-0.115,0.844-0.273,1.658-0.427,2.449c-0.139,0.713-0.281,1.445-0.395,2.209c0,0-0.658,5.935-0.931,8.146
		c-0.146,1.191-0.299,2.422-0.392,3.637c-0.365,4.729,0.245,9.486,0.834,14.086c0.344,2.682,0.698,5.447,0.844,8.133
		c-0.991-0.334-1.737-1.008-2.271-2.051c0.723-2.199,0.868-5.062,0.461-9l-0.051-0.482l-0.409,0.262
		c-0.802,0.51-0.625,1.449-0.455,2.357c0.107,0.57,0.217,1.154,0.136,1.701c-0.466-0.264-1.522-1.352-2.062-1.906
		c-0.187-0.191-0.36-0.371-0.511-0.52c0.376-0.941,1.234-1.424,2.141-1.932c0.364-0.205,0.741-0.416,1.086-0.66l0.143-0.102
		l-0.017-0.174c-0.476-4.838-0.092-9.344,0.28-13.701c0.062-0.736-0.177-1.886-0.364-2.573c-0.188-0.688-2.462-2.154-2.462-2.154
		l0.531,0.877c1.102,1.818,1.404,3.444,1.072,6.124c0,0-0.329,2.76-0.361,2.793c0,0,0.035,2.568,0.074,3.729
		c0.029,0.848,0.059,1.719,0.104,2.57c-0.896-0.652-1.998-1.088-3.285-1.301c-0.194-1.35-0.021-2.99,0.147-4.58
		c0.3-2.84,0.609-5.766-1.262-6.988c0,0-0.679-0.365-0.702-0.363s2.323-3.001,2.983-3.894c0.66-0.895,1.129-1.797,1.129-1.797
		c0.364-0.93,0.868-1.83,1.356-2.703c0.224-0.398,0.451-0.805,0.666-1.217C58.418,132.181,58.958,131.46,59.749,131.206z
		 M53.052,154.146l0.129,0.088c0.531,0.365,1.18,0.598,1.807,0.822c1.04,0.373,2.023,0.727,2.42,1.621
		c-0.205,0.619-0.754,0.904-1.386,1.232c-0.563,0.293-1.187,0.615-1.53,1.236c-0.161-0.365-0.361-1.008-1.089-2.492
		c-1.56-3.111-1.521-8.436-0.198-11.096c0.251,1.617,0.12,3.447-0.008,5.225c-0.077,1.072-0.156,2.182-0.146,3.207L53.052,154.146z
		 M48.32,147.851l-3.982,6.922c-0.17-0.877-0.315-1.769-0.435-2.673l4.161-4.553C48.142,147.658,48.222,147.766,48.32,147.851z
		 M48.985,148.197c0.194,0.053,0.401,0.088,0.633,0.088c0.008,0,0.016-0.001,0.023-0.002l-4.06,11.361
		c-0.391-1.216-0.733-2.471-1.018-3.762L48.985,148.197z M46.036,160.605l4.44-12.426c0.379-0.08,0.74-0.192,1.029-0.295
		c-1.406,8.199,2.569,12.771,6.085,16.814l0.018,0.021c-0.677,1.338-0.753,2.852-0.198,4.088c0.344,0.764,0.902,1.35,1.613,1.703
		c-0.476,0.175-0.942,0.369-1.386,0.591l-0.032-0.183c-1.801,0.243-3.668,0.951-4.773,1.427c-2.922-3.06-5.316-7.104-6.947-11.795
		L46.036,160.605z M56,172.301c-0.165,0.187-0.75,0.989-0.302,2.598c-0.708-0.529-1.395-1.108-2.057-1.74
		C54.244,172.9,55.088,172.568,56,172.301z M56.568,174.141c-0.083-1.635,1.91-2.514,3.773-2.801v0.926
		c-0.188,0.068-0.439,0.102-0.684,0.133c-0.496,0.064-1.058,0.139-1.353,0.551c-0.185,0.258-0.231,0.592-0.148,0.996
		c0.132,1.234,1.511,1.234,2.251,1.234l0.748-0.006c0.15,0,0.299,0.002,0.444,0.01c0.088,0.004,0.139,0.096,0.26,0.385
		c0.065,0.158,0.144,0.348,0.269,0.521c-0.421,0.018-0.859,0.029-1.298,0.029C57.951,176.119,56.636,175.51,56.568,174.141z
		 M59.679,173.465c-0.033,0.117-0.054,0.248-0.063,0.391h-0.374v-0.266C59.373,173.521,59.515,173.479,59.679,173.465z
		 M71.069,174.986c-0.365,0.271-1.115,0.344-1.115,0.344s-0.631-0.92-0.766-1.168c-0.035-0.064-0.072-0.133-0.115-0.201
		c0.244-0.148,0.59-0.229,1.037-0.238C70.112,173.857,71.433,174.717,71.069,174.986z M65.863,175.797
		c0.566,0,1.248,0.148,1.968,0.303c0.775,0.166,1.574,0.34,2.301,0.34l0,0c1.07,0,1.789-0.385,2.195-1.176l0.031-0.094
		c0.111-0.752-0.406-1.148-0.783-1.438c-0.412-0.314-0.551-0.42-0.291-0.795c0.475-0.178,1.73,0.824,1.936,1.611
		c0.207,0.787-0.102,1.35-0.535,1.83c-0.521,0.572-1.441,0.863-2.736,0.863c-1.652,0-3.569-0.463-4.967-0.801l-0.301-0.07
		C64.876,175.973,65.246,175.797,65.863,175.797z M72.786,172.5c-0.37-0.269-0.72-0.536-0.984-0.858
		c3.293,0.482,5.277,1.473,6.115,1.982c-1.287,1.157-2.658,2.138-4.1,2.906c0.158-0.276,0.293-0.577,0.367-0.931
		C74.593,173.67,73.712,173.176,72.786,172.5z M77.3,149.283c0.172-1.314,0.35-2.666,0.396-3.982c0.348,0.277,0.633,0.631,0.93,1
		c0.129,0.16,0.256,0.32,0.391,0.473l-0.238,0.822c-0.549,1.9-1.113,3.852-1.85,5.605C76.944,151.99,77.118,150.666,77.3,149.283z
		 M77.999,143.33c0.314-0.383,0.709-0.576,1.174-0.576c0.75,0,1.568,0.492,2.139,1.09c-0.256-0.064-0.504-0.143-0.758-0.225
		c-0.504-0.16-1.252-0.348-1.252-0.348l0.068,0.801c1.645,0.662,2.609,1.049,3.051,2.771c-0.338,0.305-0.678,0.461-1.016,0.461
		C79.983,147.305,78.636,144.643,77.999,143.33z M81.364,148.389c0.113,0,0.211-0.028,0.318-0.041l5.086,10.378
		c-0.309,1.046-0.656,2.062-1.037,3.048l-4.922-13.441C80.993,148.365,81.179,148.389,81.364,148.389z M82.423,148.152
		c0.283-0.126,0.539-0.289,0.732-0.512l4.641,6.77c-0.203,1.1-0.447,2.174-0.727,3.225L82.423,148.152z M59.04,176.924
		c2.011,0.102,3.856,0.393,5.639,0.686c1.219,0.201,3.597,0.437,4.779,0.548c-1.117,0.248-2.262,0.376-3.427,0.376
		C63.591,178.533,61.242,177.963,59.04,176.924z M78.71,172.881c-0.943-0.602-3.305-1.828-7.384-2.314
		c-0.079-0.106-0.074,0.021,0.878-0.947c1.139-1.158,0.629-1.814,1.76-2.965c1.754-2.402,1.828-4.887,2.023-6.441
		c0.166-1.318,0.336-2.682,0.732-3.947c0.398-1.27,0.92-2.449,1.426-3.59c0.703-1.582,1.369-3.084,1.666-4.711
		c0.025,0.016,0.054,0.027,0.08,0.041l5.424,14.812C83.637,166.815,81.378,170.25,78.71,172.881z"/>
	<path fill="#2F2483" d="M38.343,114.565c0.021,1.35,0.771,1.972,1.936,2.176C41.501,115.445,39.572,113.984,38.343,114.565z"/>
	<path fill="#2F2483" d="M42.698,118.677c0.248,0.318,0.237,0.892,0.485,1.21c1.822,0.464,2.661-2.123,0.968-2.419
		c-0.658,0.221,0.645,0.45,0.24,1.209h-1.208c-0.117-0.55-0.48-1.235,0-1.693c-0.847-0.34-0.762,1.466-1.211,0.725
		c0.332-2.755,2.704-0.531,4.114-0.241c-0.034-1.258-1.142-1.438-1.452-2.419h-1.691c-0.451,1.809-3.285,1.232-2.664,4.111
		C41.052,119.759,42.409,119.322,42.698,118.677z"/>
	<path fill="#2F2483" d="M44.15,122.065c-0.67,0.146-0.686,2.199-0.243,2.661C44.292,124.214,45.171,122.475,44.15,122.065z"/>
	<path fill="#2F2483" d="M44.391,120.614c-0.922-0.141-2.103-0.982-2.9-0.484c0.379,3.026,3.254,0.237,4.594,0.725
		c0.461-0.914,1.524-1.218,1.212-2.904C45.05,117.563,45.992,120.358,44.391,120.614z"/>
	<path fill="#2F2483" d="M91.237,114.651c-1.092-0.102-1.42,0.563-1.984,0.993c-0.389-0.355-0.195-1.293-0.992-1.24
		c-0.992,0.001-1.426,0.563-2.268,0.716c0.082,0.156,0.102,0.347,0.039,0.514c0.074-0.005,0.148-0.007,0.244,0.01
		c0.699,0.046,1.057,0.431,0.992,1.24c-1.135-0.056-1.732,0.418-2.482,0.745c-0.119,0.781,0.352,0.971,0.496,1.489
		c1.029,0.612,1.264-1.143,2.232,0c-0.707,1.6-0.268,4.62,0.746,5.956c0.65-1.08-0.793-2.701,0-3.971
		c0.025-0.002,0.18-0.778,0.215-0.929c1.084-1.339,0.412,0.395,0.51,0.685c0.096,0.289,1.479-0.195,1.479-0.195s1-1.805,0.527-3.283
		c0.184-0.396,1.213,0.057,0.992-0.744C91.853,115.857,91.548,115.252,91.237,114.651z M88.842,118.528
		c-1.185,0-1.185-1.829,0-1.829C90.028,116.7,90.028,118.528,88.842,118.528z"/>
	<g>
		<path fill="#2F2483" d="M80.362,98.55c-0.026-0.058-0.083-0.094-0.146-0.094h-0.409c-0.062,0-0.12,0.036-0.145,0.094l-3.99,8.687
			c-0.022,0.051-0.019,0.107,0.011,0.153c0.029,0.046,0.08,0.073,0.135,0.073h1.404c0.064,0,0.122-0.037,0.146-0.096l0.859-2h3.569
			l0.857,2c0.025,0.059,0.083,0.096,0.147,0.096h1.404c0.054,0,0.105-0.026,0.134-0.073c0.029-0.046,0.034-0.103,0.011-0.153
			L80.362,98.55z M81.241,104.044h-2.438l1.209-2.849L81.241,104.044z"/>
	</g>
	<g>
		<path fill="#2F2483" d="M66.099,88.352c0,0,0.667-0.059,1.363,0.119c0.697,0.178,1.304,0.513,1.304,0.513
			c0.078,0.035,0.169,0.001,0.206-0.078l0.488-1.025c0.04-0.081,0.006-0.18-0.072-0.22c-0.011-0.006-0.311-0.161-0.496-0.246
			c-0.188-0.087-1.02-0.388-1.41-0.465c-0.39-0.077-0.633-0.129-1.383-0.131c-2.572,0-4.665,2.089-4.665,4.665
			c0,2.576,2.088,4.666,4.665,4.666c0.098-0.001,0.605-0.013,1.021-0.076c0.416-0.062,1.148-0.256,1.148-0.256
			s1.027-0.327,1.042-0.332c0.064-0.022,0.106-0.083,0.106-0.152v-4.216c0-0.042-0.017-0.084-0.046-0.114
			c-0.031-0.03-0.071-0.048-0.113-0.048l0,0l-2.972,0.006c-0.042,0-0.083,0.017-0.113,0.047c-0.029,0.031-0.046,0.072-0.046,0.115
			l0.006,1.008c0,0.089,0.072,0.161,0.159,0.161c0.001,0,0.001,0,0.001,0l1.791-0.009l-0.003,2c-0.04,0.021-0.091,0.047-0.146,0.069
			c-0.108,0.045-0.371,0.141-0.741,0.207c-0.371,0.065-0.947,0.061-1.096,0.058c-1.73,0-3.131-1.404-3.131-3.133
			C62.968,89.755,64.369,88.352,66.099,88.352z"/>
	</g>
	<g>
		<path fill="#2F2483" d="M73.492,87.059h-1.216c-0.088,0-0.16,0.072-0.16,0.16v8.527c0,0.088,0.072,0.16,0.16,0.16h1.216
			c0.088,0,0.159-0.072,0.159-0.16v-8.527C73.651,87.131,73.58,87.059,73.492,87.059z"/>
	</g>
	<g>
		<path fill="#2F2483" d="M73.458,98.618h-1.217c-0.087,0-0.159,0.071-0.159,0.16v8.527c0,0.088,0.072,0.159,0.159,0.159h1.217
			c0.088,0,0.16-0.071,0.16-0.159v-8.527C73.617,98.688,73.546,98.618,73.458,98.618z"/>
	</g>
	<g>
		<path fill="#2F2483" d="M56.945,98.549c-0.026-0.057-0.082-0.093-0.145-0.093h-0.41c-0.062,0-0.12,0.036-0.145,0.093l-3.989,8.688
			c-0.023,0.051-0.02,0.107,0.011,0.153c0.029,0.046,0.08,0.073,0.134,0.073h1.405c0.063,0,0.121-0.037,0.146-0.096l0.859-2.001
			h3.57l0.857,2.001c0.025,0.059,0.083,0.096,0.146,0.096h1.405c0.054,0,0.104-0.026,0.134-0.073
			c0.029-0.046,0.033-0.103,0.01-0.153L56.945,98.549z M57.825,104.044h-2.438l1.21-2.849L57.825,104.044z"/>
	</g>
	<g>
		<path fill="#2F2483" d="M91.092,106.095h-3.379v-2.612h3.011c0.088,0,0.159-0.071,0.159-0.159v-0.993
			c0-0.088-0.071-0.16-0.159-0.16h-3.011v-2.165h3.314c0.088,0,0.16-0.071,0.16-0.16v-1.069c0-0.088-0.072-0.16-0.16-0.16h-4.664
			c-0.089,0-0.16,0.072-0.16,0.16v8.527c0,0.088,0.071,0.16,0.16,0.16h4.729c0.088,0,0.16-0.072,0.16-0.16v-1.05
			C91.251,106.167,91.18,106.095,91.092,106.095z"/>
	</g>
	<g>
		<path fill="#2F2483" d="M52.191,94.536h-3.021v-7.317c0-0.088-0.062-0.16-0.139-0.16h-1.062c-0.077,0-0.139,0.072-0.139,0.16
			v8.527c0,0.088,0.062,0.16,0.139,0.16h4.222c0.078,0,0.14-0.072,0.14-0.16v-1.05C52.332,94.607,52.269,94.536,52.191,94.536z"/>
	</g>
	<g>
		<path fill="#2F2483" d="M59.575,94.536h-3.381v-2.612h3.014c0.087,0,0.159-0.071,0.159-0.16v-0.993c0-0.088-0.072-0.16-0.159-0.16
			h-3.014v-2.164h3.315c0.088,0,0.16-0.071,0.16-0.16v-1.069c0-0.088-0.072-0.16-0.16-0.16h-4.665c-0.088,0-0.16,0.072-0.16,0.16
			v8.527c0,0.088,0.072,0.16,0.16,0.16h4.73c0.088,0,0.159-0.072,0.159-0.16v-1.05C59.734,94.607,59.663,94.536,59.575,94.536z"/>
	</g>
	<g>
		<path fill="#2F2483" d="M80.55,86.809c-2.576,0-4.665,2.089-4.665,4.665c0,2.577,2.089,4.665,4.665,4.665s4.665-2.087,4.665-4.665
			C85.214,88.898,83.126,86.809,80.55,86.809z M80.55,94.605c-1.729,0-3.131-1.402-3.131-3.131c0-1.729,1.401-3.132,3.131-3.132
			s3.132,1.403,3.132,3.132C83.682,93.203,82.279,94.605,80.55,94.605z"/>
	</g>
	<g>
		<path fill="#2F2483" d="M69.617,107.204l-2.815-3.465c1.118-0.3,1.941-1.306,1.941-2.502c0-1.432-1.146-2.624-2.821-2.619h-2.941
			c-0.042,0-0.083,0.016-0.112,0.047c-0.03,0.03-0.046,0.071-0.046,0.113c0,0,0,0.171,0.001,0.46
			c-0.001,0.012-0.002,0.023-0.001,0.036l0.001,0.021c0.005,1.761-0.001,7.946-0.001,8.008c0,0.042,0.016,0.083,0.046,0.113
			c0.03,0.031,0.07,0.046,0.112,0.046h1.265c0.088,0,0.159-0.071,0.159-0.159l0.002-3.364l0.698-0.006l2.742,3.469
			c0.031,0.039,0.077,0.06,0.126,0.06h1.522c0.061,0,0.116-0.035,0.144-0.09C69.665,107.317,69.657,107.251,69.617,107.204z
			 M64.387,102.597c-0.004-0.438-0.016-1.803-0.014-2.643c0-0.007,0.001-0.014,0.001-0.02c0.24-0.006,1.319-0.012,1.33-0.012
			c0.86,0.01,1.42,0.589,1.42,1.313c0,0.724-0.568,1.277-1.307,1.336C65.454,102.598,64.447,102.603,64.387,102.597z"/>
	</g>
	<path fill="#2F2483" d="M50.911,107.286c-0.008-0.079-0.886-7.903-0.972-8.688c-0.008-0.081-0.075-0.142-0.153-0.142h-0.774
		c-0.059,0-0.113,0.035-0.139,0.091c-0.504,1.087-2.331,4.75-3.011,6.083l0,0v0c-0.681-1.334-2.507-4.996-3.012-6.083
		c-0.025-0.056-0.081-0.091-0.139-0.091h-0.775c-0.077,0-0.143,0.061-0.152,0.142c-0.086,0.785-0.962,8.609-0.972,8.688
		c-0.006,0.045,0.009,0.09,0.038,0.125c0.029,0.034,0.071,0.052,0.115,0.052h1.225c0.08,0,0.146-0.062,0.153-0.144l0.507-5.699
		l2.801,5.73c0.026,0.054,0.08,0.088,0.138,0.088h0.073h0.074c0.057,0,0.11-0.034,0.137-0.088l2.801-5.73l0.507,5.699
		c0.007,0.082,0.073,0.144,0.152,0.144h1.225c0.044,0,0.085-0.019,0.115-0.052C50.903,107.376,50.917,107.331,50.911,107.286z"/>
</g>
</svg>
